<svg xmlns="http://www.w3.org/2000/svg" width="598" height="476.963" viewBox="0 0 598 476.963">
  <g id="Group_131" data-name="Group 131" transform="translate(-759 -265)">
    <path id="Path_458" data-name="Path 458" d="M977.709,651.1H417.291A18.791,18.791,0,0,1,398.5,632.306h0q304.727-35.415,598,0h0A18.791,18.791,0,0,1,977.709,651.1Z" transform="translate(360.5 90.866)" fill="#2f2e41"/>
    <path id="Path_459" data-name="Path 459" d="M996.5,633.411l-598-1.105L467.806,515.69l.332-.553V258.131a23.753,23.753,0,0,1,23.756-23.754h407.9a23.753,23.753,0,0,1,23.754,23.756V516.906Z" transform="translate(360.5 90.866)" fill="#3f3d56"/>
    <path id="Path_460" data-name="Path 460" d="M491.35,250.957a7.746,7.746,0,0,0-7.738,7.738V493.031a7.747,7.747,0,0,0,7.738,7.737h412.3a7.747,7.747,0,0,0,7.738-7.738V258.694a7.747,7.747,0,0,0-7.738-7.738Z" transform="translate(360.5 90.866)" fill="#fff"/>
    <path id="Path_461" data-name="Path 461" d="M493.078,531.718a3.325,3.325,0,0,0-3.013,1.93L468.71,580.073a3.316,3.316,0,0,0,3.012,4.7H920.814a3.316,3.316,0,0,0,2.965-4.8l-23.212-46.425a3.3,3.3,0,0,0-2.965-1.833Z" transform="translate(360.5 90.866)" fill="#2f2e41"/>
    <circle id="Ellipse_27" data-name="Ellipse 27" cx="4.974" cy="4.974" r="4.974" transform="translate(1051.368 328.006)" fill="#fff"/>
    <path id="Path_462" data-name="Path 462" d="M651.7,593.619a3.321,3.321,0,0,0-3.2,2.454l-5.357,19.9a3.316,3.316,0,0,0,3.2,4.179H748.217a3.315,3.315,0,0,0,3.133-4.4l-6.887-19.9a3.318,3.318,0,0,0-3.134-2.231Z" transform="translate(360.5 90.866)" fill="#2f2e41"/>
    <path id="Path_463" data-name="Path 463" d="M720.046,337.135v4.421H264.306l.343-.552v-3.869Z" transform="translate(564 265)" fill="#2f2e41"/>
    <circle id="Ellipse_28" data-name="Ellipse 28" cx="77.375" cy="77.375" r="77.375" transform="translate(1193.96 265)" fill="#1ed760"/>
    <path id="Path_464" data-name="Path 464" d="M942.89,285.223H878.779a4.426,4.426,0,0,1-4.422-4.421V242.114a4.426,4.426,0,0,1,4.422-4.421H942.89a4.426,4.426,0,0,1,4.421,4.421V280.8a4.426,4.426,0,0,1-4.421,4.421Zm-64.111-43.109V280.8h64.114l0-38.687Z" transform="translate(360.5 90.866)" fill="#fff"/>
    <path id="Path_465" data-name="Path 465" d="M930.731,242.114H890.938V224.428c0-12.81,8.368-22.107,19.9-22.107s19.9,9.3,19.9,22.107Zm-35.372-4.421h30.95V224.428c0-10.413-6.363-17.686-15.475-17.686s-15.475,7.273-15.475,17.686Z" transform="translate(360.5 90.866)" fill="#fff"/>
    <circle id="Ellipse_29" data-name="Ellipse 29" cx="4.421" cy="4.421" r="4.421" transform="translate(1266.914 346.797)" fill="#fff"/>
    <path id="Path_466" data-name="Path 466" d="M856.82,421.284H538.18a5.908,5.908,0,0,1-5.9-5.9V336.342a5.908,5.908,0,0,1,5.9-5.9H856.82a5.908,5.908,0,0,1,5.9,5.9v79.041A5.908,5.908,0,0,1,856.82,421.284ZM538.18,332.8a3.544,3.544,0,0,0-3.54,3.54v79.041a3.544,3.544,0,0,0,3.54,3.54H856.82a3.544,3.544,0,0,0,3.54-3.54V336.342a3.544,3.544,0,0,0-3.54-3.54Z" transform="translate(360.5 90.866)" fill="#e6e6e6"/>
    <circle id="Ellipse_30" data-name="Ellipse 30" cx="24.036" cy="24.036" r="24.036" transform="translate(924.153 439.659)" fill="#e6e6e6"/>
    <path id="Path_467" data-name="Path 467" d="M643.2,356.8a4.006,4.006,0,1,0,0,8.012H832.061a4.006,4.006,0,0,0,0-8.012Z" transform="translate(360.5 90.866)" fill="#1ed760"/>
    <path id="Path_468" data-name="Path 468" d="M643.2,380.842a4.006,4.006,0,1,0,0,8.012h81.266a4.006,4.006,0,1,0,0-8.012Z" transform="translate(360.5 90.866)" fill="#1ed760"/>
  </g>
</svg>
