<svg xmlns="http://www.w3.org/2000/svg" viewBox="0 0 615.16 109.21"><defs><style>.cls-1{fill:#1ed760;}</style></defs><g id="Layer_2" data-name="Layer 2"><g id="Layer_1-2" data-name="Layer 1"><path class="cls-1" d="M135,9.18a227.23,227.23,0,0,0-124-1.08A14.85,14.85,0,0,0,.4,25.85,121,121,0,0,0,12,56.2c15.8,28.88,39.7,44.22,53.82,51.41a14.8,14.8,0,0,0,13.71-.17,135.3,135.3,0,0,0,43.3-36.7,135.05,135.05,0,0,0,22.11-43A14.8,14.8,0,0,0,135,9.18ZM97,70.69H77.76l3.4-19.44H62.61l-3.4,19.44H40l9.31-52.81h19.2L66,32.33,65.12,37H102.9Zm6.77-38.36H84.5l2.57-14.45h19.2Z"/><polygon class="cls-1" points="219.39 47.37 219.39 47.37 200.97 47.37 200.97 47.37 201.8 42.73 204.35 28.38 185.28 28.38 176.03 80.83 195.1 80.83 198.48 61.52 216.9 61.52 213.52 80.83 232.59 80.83 238.49 47.37 219.39 47.37"/><polygon class="cls-1" points="241.84 28.38 222.77 28.38 220.22 42.73 239.31 42.73 241.84 28.38"/><path class="cls-1" d="M280.73,72.89H261.15L256.94,81H237.2L263,28.23h30.75L301,81H282ZM267.87,58.81H279l-2.59-16.66Z"/><path class="cls-1" d="M329.28,46.68A12.09,12.09,0,0,0,325,54.52l-.08.25a12.07,12.07,0,0,0-.24,2.34q0,7.29,9.79,8h17.8L349.42,81H331.54a50.91,50.91,0,0,1-12.66-1.41A20.89,20.89,0,0,1,310,75a15.84,15.84,0,0,1-4.69-8.1,29.9,29.9,0,0,1,0-12.17v-.25a34.53,34.53,0,0,1,4.24-12.21,25.71,25.71,0,0,1,7.65-8.13,32,32,0,0,1,10.6-4.54,57.16,57.16,0,0,1,13.11-1.41h17.88L356,44H339.55Q332.68,44,329.28,46.68Z"/><path class="cls-1" d="M421.51,28.23,396,54.69,412.13,81h-22L378,60.75,374.42,81H355.25l9.3-52.75h19.18l-3.4,19.09,18.29-19.09Z"/><path class="cls-1" d="M466.66,61.56H439.15l-.56,3.56h29.69L465.45,81H416.58l9.3-52.75h48.87l-2.83,15.86H442.23l-.57,3.56h27.51Z"/><path class="cls-1" d="M490.45,81H471.27l9.31-52.75h41A9.18,9.18,0,0,1,526,29.36a14.36,14.36,0,0,1,6.39,7.08,12.06,12.06,0,0,1,1,4.73c0,.33,0,.65,0,1s-.07.64-.12,1l-.89,4.69a22.16,22.16,0,0,1-1.7,5.5,19.91,19.91,0,0,1-3.2,4.94,22.26,22.26,0,0,1-4.73,4,24,24,0,0,1-6.31,2.83h21.52L535,81H504a7.17,7.17,0,0,1-4-1.9,17.77,17.77,0,0,1-3.32-4,24.64,24.64,0,0,1-2.35-5,23.24,23.24,0,0,1-1.13-4.81Zm5.34-30.5h11a9.37,9.37,0,0,0,4.13-.73,3.44,3.44,0,0,0,1.86-2.43v-.48c0-1.84-1.62-2.75-4.85-2.75h-11Z"/><path class="cls-1" d="M540.86,81l2.83-15.86h15.13a7.73,7.73,0,0,0,3.19-.56A5.55,5.55,0,0,0,564.08,63a7.76,7.76,0,0,0,1.25-2.35,17,17,0,0,0,.69-3l5.18-29.45h19.25L583.82,66a13.44,13.44,0,0,1-2.39,5.26,25.26,25.26,0,0,1-4.49,4.82,26.83,26.83,0,0,1-5.46,3.52A12.38,12.38,0,0,1,566.26,81Z"/><polygon class="cls-1" points="586.85 80.83 605.91 80.83 611.81 47.37 592.75 47.37 586.85 80.83"/><polygon class="cls-1" points="596.1 28.38 593.57 42.73 612.63 42.73 615.16 28.38 596.1 28.38"/></g></g></svg>