<svg xmlns="http://www.w3.org/2000/svg" width="95.466" height="71.6" viewBox="0 0 95.466 71.6">
  <path id="Path_177" data-name="Path 177" d="M88.517,6.022a148.99,148.99,0,0,0-81.3-.708A9.737,9.737,0,0,0,.262,16.952a79.337,79.337,0,0,0,7.606,19.9C18.228,55.788,33.9,65.846,43.157,70.561a9.7,9.7,0,0,0,8.989-.111A88.713,88.713,0,0,0,80.537,46.386a88.549,88.549,0,0,0,14.5-28.194A9.7,9.7,0,0,0,88.517,6.022ZM63.6,46.353H50.986l2.229-12.746H41.052L38.823,46.353h-12.6l6.1-34.626H44.921L43.275,21.2,42.7,24.263H67.469ZM68.04,21.2H55.4l1.685-9.475H69.679Z" transform="translate(0 -0.009)" fill="#1ed760"/>
</svg>
