<svg xmlns="http://www.w3.org/2000/svg" width="1041.277" height="554.141" viewBox="0 0 1041.277 554.141">
  <g id="Group_9" data-name="Group 9" transform="translate(-730.362 -303)">
    <g id="Group_7" data-name="Group 7" transform="translate(730.351 302.965)">
      <path id="Path_190" data-name="Path 190" d="M1040.82,611.12q-1.74,3.75-3.47,7.4-2.7,5.67-5.33,11.12c-.78,1.61-1.56,3.19-2.32,4.77-8.6,17.57-16.63,33.11-23.45,45.89A73.21,73.21,0,0,1,942.44,719l-151.65,1.65h-1.6l-13,.14-11.12.12-34.1.37h-1.38l-17.36.19h-.53l-107,1.16-95.51,1-11.11.12-69,.75H429l-44.75.48h-.48l-141.5,1.53-42.33.46a87.991,87.991,0,0,1-10.79-.54h0c-1.22-.14-2.44-.3-3.65-.49a87.38,87.38,0,0,1-51.29-27.54C116,678.37,102.75,655,93.85,629.64q-1.93-5.49-3.6-11.12C59.44,514.37,97,380,164.6,290.08q4.25-5.64,8.64-11l.07-.08c20.79-25.52,44.1-46.84,68.93-62,44-26.91,92.75-34.49,140.7-11.9,40.57,19.12,78.45,28.11,115.17,30.55,3.71.24,7.42.42,11.11.53,84.23,2.65,163.17-27.7,255.87-47.29,3.69-.78,7.39-1.55,11.12-2.28,66.13-13.16,139.49-20.1,226.73-5.51a189.089,189.089,0,0,1,26.76,6.4q5.77,1.86,11.12,4c41.64,16.94,64.35,48.24,74,87.46q1.37,5.46,2.37,11.11C1134.3,384.41,1084.19,518.23,1040.82,611.12Z" transform="translate(-79.34 -172.91)" fill="#fff"/>
      <path id="Path_191" data-name="Path 191" d="M576.36,618.52a95.21,95.21,0,0,1-1.87,11.12h93.7V618.52Zm-78.25,62.81,11.11-.09V653.77c-3.81-.17-7.52-.34-11.11-.52ZM265.19,618.52v11.12h198.5V618.52ZM1114.87,279h-74V191.51q-5.35-2.17-11.12-4V279H776.21V186.58c-3.73.73-7.43,1.5-11.12,2.28V279H509.22V236.15c-3.69-.11-7.4-.29-11.11-.53V279H242.24V217c-24.83,15.16-48.14,36.48-68.93,62h-.07v.08q-4.4,5.4-8.64,11h8.64V618.52h-83q1.66,5.63,3.6,11.12h79.39v93.62a87,87,0,0,0,12.2,2.79c1.21.19,2.43.35,3.65.49h0a87.991,87.991,0,0,0,10.79.54l42.33-.46v-97H498.11v94.21l11.11-.12V629.64H765.09V721l11.12-.12V629.64H1029.7v4.77c.76-1.58,1.54-3.16,2.32-4.77q2.63-5.45,5.33-11.12,1.73-3.64,3.47-7.4v-321h76.42Q1116.23,284.43,1114.87,279ZM242.24,618.52V290.08H498.11V618.52Zm267,0V290.08H765.09V618.52Zm520.48,0H776.21V290.08H1029.7Z" transform="translate(-79.34 -172.91)" fill="#1ed760"/>
      <path id="Path_192" data-name="Path 192" d="M863.09,533.65v13l-151.92,1.4-1.62.03-57.74.53-1.38.02-17.55.15h-.52l-106.98.99L349.77,551.4h-.15l-44.65.42-.48.01-198.4,1.82v-15l46.65-28,93.6-.78,2-.01.66-.01,2-.03,44.94-.37,2.01-.01.64-.01,2-.01L315,509.3l.38-.01,35.55-.3h.29l277.4-2.34,6.79-.05h.68l5.18-.05,37.65-.31,2-.03,1.85-.02h.96l11.71-.09,2.32-.03,3.11-.02,9.75-.09,15.47-.13,2-.02,3.48-.02h.65l74.71-.64Z" fill="#65617d"/>
      <path id="Path_193" data-name="Path 193" d="M863.09,533.65v13l-151.92,1.4-1.62.03-57.74.53-1.38.02-17.55.15h-.52l-106.98.99L349.77,551.4h-.15l-44.65.42-.48.01-198.4,1.82v-15l46.65-28,93.6-.78,2-.01.66-.01,2-.03,44.94-.37,2.01-.01.64-.01,2-.01L315,509.3l.38-.01,35.55-.3h.29l277.4-2.34,6.79-.05h.68l5.18-.05,37.65-.31,2-.03,1.85-.02h.96l11.71-.09,2.32-.03,3.11-.02,9.75-.09,15.47-.13,2-.02,3.48-.02h.65l74.71-.64Z" opacity="0.2"/>
      <path id="Path_194" data-name="Path 194" d="M375.44,656.57v24.49a6.13,6.13,0,0,1-3.5,5.54,6,6,0,0,1-2.5.6l-34.9.74a6,6,0,0,1-2.7-.57,6.12,6.12,0,0,1-3.57-5.57V656.57Z" transform="translate(-79.34 -172.91)" fill="#3f3d56"/>
      <path id="Path_195" data-name="Path 195" d="M375.44,656.57v24.49a6.13,6.13,0,0,1-3.5,5.54,6,6,0,0,1-2.5.6l-34.9.74a6,6,0,0,1-2.7-.57,6.12,6.12,0,0,1-3.57-5.57V656.57Z" transform="translate(-79.34 -172.91)" opacity="0.1"/>
      <path id="Path_196" data-name="Path 196" d="M377.44,656.57v24.49a6.13,6.13,0,0,1-3.5,5.54,6,6,0,0,1-2.5.6l-34.9.74a6,6,0,0,1-2.7-.57,6.12,6.12,0,0,1-3.57-5.57V656.57Z" transform="translate(-79.34 -172.91)" fill="#3f3d56"/>
      <rect id="Rectangle_182" data-name="Rectangle 182" width="47.17" height="31.5" transform="translate(680.92 483.65)" fill="#3f3d56"/>
      <rect id="Rectangle_183" data-name="Rectangle 183" width="47.17" height="31.5" transform="translate(680.92 483.65)" opacity="0.1"/>
      <rect id="Rectangle_184" data-name="Rectangle 184" width="47.17" height="31.5" transform="translate(678.92 483.65)" fill="#3f3d56"/>
      <path id="Path_197" data-name="Path 197" d="M298.09,483.65v4.97l-47.17,1.26v-6.23Z" opacity="0.1"/>
      <path id="Path_198" data-name="Path 198" d="M460.69,485.27v168.2a4,4,0,0,1-3.85,3.95l-191.65,5.1h-.05a4,4,0,0,1-3.95-3.95V485.27a4,4,0,0,1,3.95-3.95h191.6a4,4,0,0,1,3.95,3.95Z" transform="translate(-79.34 -172.91)" fill="#65617d"/>
      <path id="Path_199" data-name="Path 199" d="M265.19,481.32v181.2h-.05a4,4,0,0,1-3.95-3.95V485.27a4,4,0,0,1,3.95-3.95Z" transform="translate(-79.34 -172.91)" opacity="0.1"/>
      <path id="Path_200" data-name="Path 200" d="M194.59,319.15h177.5V467.4l-177.5,4Z"/>
      <path id="Path_201" data-name="Path 201" d="M726.09,483.65v6.41l-47.17-1.26v-5.15Z" opacity="0.1"/>
      <path id="Path_202" data-name="Path 202" d="M867.69,485.27v173.3a4,4,0,0,1-4,3.95h0L672,657.42a4,4,0,0,1-3.85-3.95V485.27a4,4,0,0,1,3.95-3.95H863.7a4,4,0,0,1,3.99,3.95Z" transform="translate(-79.34 -172.91)" fill="#65617d"/>
      <path id="Path_203" data-name="Path 203" d="M867.69,485.27v173.3a4,4,0,0,1-4,3.95h0V481.32h0a4,4,0,0,1,4,3.95Z" transform="translate(-79.34 -172.91)" opacity="0.1"/>
      <path id="Path_204" data-name="Path 204" d="M775.59,319.15H598.09V467.4l177.5,4Z"/>
      <path id="Path_205" data-name="Path 205" d="M663.19,485.27v168.2a4,4,0,0,1-3.85,3.95l-191.65,5.1h0a4,4,0,0,1-4-3.95V485.27a4,4,0,0,1,3.95-3.95h191.6A4,4,0,0,1,663.19,485.27Z" transform="translate(-79.34 -172.91)" fill="#65617d"/>
      <path id="Path_206" data-name="Path 206" d="M397.09,319.15h177.5V467.4l-177.5,4Z"/>
      <path id="Path_207" data-name="Path 207" d="M863.09,533.65v13l-151.92,1.4-1.62.03-57.74.53-1.38.02-17.55.15h-.52l-106.98.99L349.77,551.4h-.15l-44.65.42-.48.01-198.4,1.82v-15l202.51-1.33h.48l40.99-.28h.19l283.08-1.87h.29l.17-.01h.47l4.79-.03h1.46l74.49-.5,4.4-.02.98-.01Z" opacity="0.1"/>
      <path id="Path_208" data-name="Path 208" d="M617.94,550.07s-99.5,12-90,0c3.44-4.34,4.39-17.2,4.2-31.85-.06-4.45-.22-9.06-.45-13.65-1.1-22-3.75-43.5-3.75-43.5s87-41,77-8.5c-4,13.13-2.69,31.57.35,48.88.89,5.05,1.92,10,3,14.7a344.66,344.66,0,0,0,9.65,33.92Z" transform="translate(-79.34 -172.91)" fill="#fbbebe"/>
      <path id="Path_209" data-name="Path 209" d="M585.47,546c11.51-2.13,23.7-6,34.53-1.54,2.85,1.17,5.47,2.88,8.39,3.86s6.12,1.22,9.16,1.91c10.68,2.42,19.34,10.55,24.9,20s8.44,20.14,11.26,30.72l6.9,25.83c6,22.45,12,45.09,13.39,68.3a2437.506,2437.506,0,0,1-250.84,1.43c5.44-10.34,11-21.31,10.54-33s-7.19-23.22-4.76-34.74c1.55-7.34,6.57-13.39,9.64-20.22,8.75-19.52,1.94-45.79,17.32-60.65,6.92-6.68,17-9.21,26.63-8.89,12.28.41,24.85,4.24,37,6.11C555.09,547.48,569.79,548.88,585.47,546Z" transform="translate(-79.34 -172.91)" fill="#1ed760"/>
      <path id="Path_210" data-name="Path 210" d="M716.37,657.17l-.1,1.43v.1l-.17,2.3-1.33,18.51-1.61,22.3-.46,6.28-1,13.44v.17l-107,1-175.59,1.9v.84h-.14v-1.12l.45-14.36.86-28.06.74-23.79.07-2.37a10.53,10.53,0,0,1,11.42-10.17c4.72.4,10.85.89,18.18,1.41l3,.22c42.33,2.94,120.56,6.74,199.5,2,1.66-.09,3.33-.19,5-.31,12.24-.77,24.47-1.76,36.58-3a10.53,10.53,0,0,1,11.6,11.23Z" transform="translate(-79.34 -172.91)" opacity="0.1"/>
      <path id="Path_211" data-name="Path 211" d="M429.08,725.44v-.84l175.62-1.91,107-1h.3v-.17l1-13.44.43-6,1.64-22.61,1.29-17.9v-.44a10.617,10.617,0,0,0-.11-2.47.3.3,0,0,0,0-.1,10.391,10.391,0,0,0-2-4.64,10.54,10.54,0,0,0-9.42-4c-12.11,1.24-24.34,2.23-36.58,3-1.67.12-3.34.22-5,.31-78.94,4.69-157.17.89-199.5-2l-3-.22c-7.33-.52-13.46-1-18.18-1.41a10.54,10.54,0,0,0-11.24,8.53,11,11,0,0,0-.18,1.64l-.68,22.16L429.54,710l-.44,14.36v1.12Z" transform="translate(-79.34 -172.91)" fill="#3f3d56"/>
      <path id="Path_212" data-name="Path 212" d="M716.67,664.18l-1.23,15.33-1.83,22.85-.46,5.72-1,12.81-.06.64v.17h0l-.15,1.48.11-1.48h-.29l-107,1-175.65,1.9v-.28l.49-14.36,1-28.06.64-18.65A6.36,6.36,0,0,1,434.3,658a6.25,6.25,0,0,1,3.78-.9c2.1.17,4.68.37,7.69.59,4.89.36,10.92.78,17.94,1.22,13,.82,29.31,1.7,48,2.42,52,2,122.2,2.67,188.88-3.17,3-.26,6.1-.55,9.13-.84a6.26,6.26,0,0,1,3.48.66,5.159,5.159,0,0,1,.86.54,6.14,6.14,0,0,1,2,2.46,3.564,3.564,0,0,1,.25.61A6.279,6.279,0,0,1,716.67,664.18Z" transform="translate(-79.34 -172.91)" opacity="0.1"/>
      <path id="Path_213" data-name="Path 213" d="M377.44,677.87v3.19a6.13,6.13,0,0,1-3.5,5.54l-40.1.77a6.12,6.12,0,0,1-3.57-5.57v-3Z" transform="translate(-79.34 -172.91)" opacity="0.1"/>
      <path id="Path_214" data-name="Path 214" d="M298.59,515.57l-52.25,1V507.9l52.25-1Z" fill="#3f3d56"/>
      <path id="Path_215" data-name="Path 215" d="M298.59,515.57l-52.25,1V507.9l52.25-1Z" opacity="0.1"/>
      <path id="Path_216" data-name="Path 216" d="M300.59,515.57l-52.25,1V507.9l52.25-1Z" fill="#3f3d56"/>
      <path id="Path_217" data-name="Path 217" d="M758.56,679.87v3.19a6.13,6.13,0,0,0,3.5,5.54l40.1.77a6.12,6.12,0,0,0,3.57-5.57v-3Z" transform="translate(-79.34 -172.91)" opacity="0.1"/>
      <path id="Path_218" data-name="Path 218" d="M678.72,517.57l52.25,1V509.9l-52.25-1Z" opacity="0.1"/>
      <path id="Path_219" data-name="Path 219" d="M676.72,517.57l52.25,1V509.9l-52.25-1Z" fill="#3f3d56"/>
      <path id="Path_221" data-name="Path 221" d="M379.6,506.5H280a.5.5,0,0,1,0-1h99.6a.5.5,0,0,1,0,1Z" transform="translate(-79.34 -172.91)" fill="#1ed760"/>
      <path id="Path_222" data-name="Path 222" d="M379.6,515.5H280a.5.5,0,0,1,0-1h99.6a.5.5,0,0,1,0,1Z" transform="translate(-79.34 -172.91)" fill="#1ed760"/>
      <path id="Path_223" data-name="Path 223" d="M379.6,524.5H280a.5.5,0,0,1,0-1h99.6a.5.5,0,0,1,0,1Z" transform="translate(-79.34 -172.91)" fill="#1ed760"/>
      <circle id="Ellipse_2" data-name="Ellipse 2" cx="51.33" cy="51.33" r="51.33" transform="translate(435.93 246.82)" fill="#fbbebe"/>
      <path id="Path_220" data-name="Path 220" d="M534.13,486.79c.08,7-3.16,13.6-5.91,20.07-10.012,23.568,4.221.046,5.91,25.6.73,11,21.72-4.955,19.87,5.945s52.81-3.13,42.24,0c17.53,10.45,9.222,17.457,26.839-5.945,4.31-5.81,4.435,2.5,6.094-4.54,3.09-13,8.226,8,6.866-3.117-.43-3.56-.78-7.22.1-10.7,1-4.07,3.67-7.51,5.64-11.22,5.6-10.54,5.73-23.3,2.86-34.88s-8.49-22.26-14.06-32.81c-4.46-8.46-9.3-17.31-17.46-22.28-5.1-3.1-11-4.39-16.88-5.64l-25.37-5.43c-5.55-1.19-11.26-2.38-16.87-1.51-9.47,1.48-16.14,8.32-22,15.34-4.59,5.46-15.81,15.71-16.6,22.86-.72,6.59,5.1,17.63,6.09,24.58,1.3,9,2.22,6,7.3,11.52C532,478.05,534.07,482,534.13,486.79Z" transform="translate(-79.34 -172.91)" fill="#3f3d56"/>
    </g>
    <g id="Group_8" data-name="Group 8">
      <path id="Path_224" data-name="Path 224" d="M327.938,515.5h-48.2c-.134,0-.242-.224-.242-.5s.108-.5.242-.5h48.2c.134,0,.242.224.242.5S328.072,515.5,327.938,515.5Z" transform="translate(849.011 119.055)" fill="#fff"/>
      <path id="Path_225" data-name="Path 225" d="M327.938,515.5h-48.2c-.134,0-.242-.224-.242-.5s.108-.5.242-.5h48.2c.134,0,.242.224.242.5S328.072,515.5,327.938,515.5Z" transform="translate(849.011 126.055)" fill="#fff"/>
      <path id="Path_226" data-name="Path 226" d="M330.987,515.5h-51.23c-.142,0-.257-.224-.257-.5s.115-.5.257-.5h51.23c.142,0,.257.224.257.5S331.129,515.5,330.987,515.5Z" transform="translate(849.011 135.055)" fill="#fff"/>
      <path id="Path_227" data-name="Path 227" d="M333.68,515.5H279.771c-.149,0-.271-.224-.271-.5s.121-.5.271-.5H333.68c.149,0,.271.224.271.5S333.829,515.5,333.68,515.5Z" transform="translate(849.011 143.055)" fill="#fff"/>
      <path id="Path_228" data-name="Path 228" d="M333.68,515.5H279.771c-.149,0-.271-.224-.271-.5s.121-.5.271-.5H333.68c.149,0,.271.224.271.5S333.829,515.5,333.68,515.5Z" transform="translate(849.011 151.055)" fill="#fff"/>
      <g id="Group_2" data-name="Group 2" transform="translate(1243.189 384.123)">
        <rect id="Rectangle_2" data-name="Rectangle 2" width="2.218" height="4.958" transform="translate(89.98 241.511)" fill="#1ed760"/>
        <rect id="Rectangle_3" data-name="Rectangle 3" width="2.218" height="4.958" transform="translate(97.522 240.272)" fill="#1ed760"/>
        <rect id="Rectangle_4" data-name="Rectangle 4" width="2.218" height="4.958" transform="translate(101.515 240.272)" fill="#1ed760"/>
        <rect id="Rectangle_5" data-name="Rectangle 5" width="2.218" height="4.958" transform="translate(101.515 255.146)" fill="#1ed760"/>
        <rect id="Rectangle_6" data-name="Rectangle 6" width="2.218" height="4.958" transform="translate(105.952 247.709)" fill="#1ed760"/>
        <rect id="Rectangle_7" data-name="Rectangle 7" width="2.218" height="4.958" transform="translate(105.952 255.765)" fill="#1ed760"/>
        <rect id="Rectangle_8" data-name="Rectangle 8" width="2.218" height="4.958" transform="translate(101.515 269.022)" fill="#1ed760"/>
        <rect id="Rectangle_9" data-name="Rectangle 9" width="2.218" height="4.958" transform="translate(105.952 276.497)" fill="#1ed760"/>
        <rect id="Rectangle_10" data-name="Rectangle 10" width="2.218" height="4.958" transform="translate(101.515 304.673)" fill="#1ed760"/>
        <rect id="Rectangle_11" data-name="Rectangle 11" width="2.218" height="4.958" transform="translate(97.522 276.497)" fill="#1ed760"/>
        <rect id="Rectangle_12" data-name="Rectangle 12" width="2.218" height="4.958" transform="translate(89.98 249.568)" fill="#1ed760"/>
        <rect id="Rectangle_13" data-name="Rectangle 13" width="2.218" height="4.958" transform="translate(89.98 320.773)" fill="#1ed760"/>
        <rect id="Rectangle_14" data-name="Rectangle 14" width="2.218" height="4.958" transform="translate(89.98 335.723)" fill="#1ed760"/>
        <rect id="Rectangle_15" data-name="Rectangle 15" width="2.218" height="4.958" transform="translate(89.98 341.588)" fill="#1ed760"/>
        <rect id="Rectangle_16" data-name="Rectangle 16" width="3.106" height="0.62" transform="translate(89.093 258.244)" fill="#1ed760"/>
        <rect id="Rectangle_17" data-name="Rectangle 17" width="3.106" height="0.62" transform="translate(101.072 265.681)" fill="#1ed760"/>
        <rect id="Rectangle_18" data-name="Rectangle 18" width="3.106" height="0.62" transform="translate(89.093 293.879)" fill="#1ed760"/>
        <rect id="Rectangle_19" data-name="Rectangle 19" width="3.106" height="0.62" transform="translate(89.093 300.219)" fill="#1ed760"/>
        <rect id="Rectangle_20" data-name="Rectangle 20" width="3.106" height="0.62" transform="translate(101.072 337.111)" fill="#1ed760"/>
        <rect id="Rectangle_21" data-name="Rectangle 21" width="3.106" height="0.62" transform="translate(97.522 349.645)" fill="#1ed760"/>
        <path id="Path_1" data-name="Path 1" d="M158.179,121.914v1.239h.887v2.479h-.887v1.239H160.4v-4.958Z" transform="translate(-68.199 140.208)" fill="#1ed760"/>
        <path id="Path_2" data-name="Path 2" d="M184.414,100.309v1.239h.887v2.479h-.887v1.239h2.218v-4.958Z" transform="translate(-86.892 154.837)" fill="#1ed760"/>
        <path id="Path_3" data-name="Path 3" d="M213.735,120.37v1.24h.887v2.479h-.887v1.239h2.218V120.37Z" transform="translate(-107.783 141.177)" fill="#1ed760"/>
        <path id="Path_4" data-name="Path 4" d="M213.735,180.556V181.8h.887v2.479h-.887v1.239h2.218v-4.958Z" transform="translate(-107.783 103.417)" fill="#1ed760"/>
        <path id="Path_5" data-name="Path 5" d="M213.735,200.617v1.24h.887v2.479h-.887v1.239h2.218v-4.958Z" transform="translate(-107.783 90.831)" fill="#1ed760"/>
        <path id="Path_6" data-name="Path 6" d="M213.735,138.889v1.239h.887v2.479h-.887v1.24h2.218v-4.958Z" transform="translate(-107.783 129.558)" fill="#1ed760"/>
        <path id="Path_7" data-name="Path 7" d="M198.3,81.79v1.24h.887v2.479H198.3v1.24h2.219V81.79Z" transform="translate(-96.787 165.919)" fill="#1ed760"/>
        <rect id="Rectangle_22" data-name="Rectangle 22" width="2.218" height="4.958" transform="translate(101.515 283.973)" fill="#1ed760"/>
        <rect id="Rectangle_23" data-name="Rectangle 23" width="2.218" height="4.958" transform="translate(101.515 297.773)" fill="#1ed760"/>
        <path id="Path_8" data-name="Path 8" d="M198.3,199.074v1.239h.887v2.479H198.3v1.24h2.219v-4.958Z" transform="translate(-96.787 91.799)" fill="#1ed760"/>
        <path id="Path_9" data-name="Path 9" d="M184.414,120.37v1.24h.887v2.479h-.887v1.239h2.218V120.37Z" transform="translate(-86.892 141.177)" fill="#1ed760"/>
        <path id="Path_10" data-name="Path 10" d="M184.414,140.432v1.24h.887v2.479h-.887v1.24h2.218v-4.958Z" transform="translate(-86.892 128.59)" fill="#1ed760"/>
        <rect id="Rectangle_24" data-name="Rectangle 24" width="2.218" height="4.958" transform="translate(97.522 291.448)" fill="#1ed760"/>
        <path id="Path_11" data-name="Path 11" d="M184.414,180.556V181.8h.887v2.479h-.887v1.239h2.218v-4.958Z" transform="translate(-86.892 103.417)" fill="#1ed760"/>
        <rect id="Rectangle_25" data-name="Rectangle 25" width="2.218" height="4.958" transform="translate(97.522 306.398)" fill="#1ed760"/>
        <path id="Path_12" data-name="Path 12" d="M184.414,220.679v1.239h.887V224.4h-.887v1.24h2.218v-4.958Z" transform="translate(-86.892 78.244)" fill="#1ed760"/>
        <rect id="Rectangle_26" data-name="Rectangle 26" width="2.218" height="4.958" transform="translate(97.522 321.348)" fill="#1ed760"/>
        <rect id="Rectangle_27" data-name="Rectangle 27" width="2.218" height="4.958" transform="translate(101.515 320.198)" fill="#1ed760"/>
        <path id="Path_13" data-name="Path 13" d="M184.414,260.8v1.24h.887v2.479h-.887v1.239h2.218V260.8Z" transform="translate(-86.892 53.071)" fill="#1ed760"/>
        <path id="Path_14" data-name="Path 14" d="M213.735,260.8v1.24h.887v2.479h-.887v1.239h2.218V260.8Z" transform="translate(-107.783 53.071)" fill="#1ed760"/>
        <rect id="Rectangle_28" data-name="Rectangle 28" width="2.218" height="4.958" transform="translate(130.64 247.709)" fill="#1ed760"/>
        <rect id="Rectangle_29" data-name="Rectangle 29" width="2.218" height="4.958" transform="translate(130.64 255.765)" fill="#1ed760"/>
        <rect id="Rectangle_30" data-name="Rectangle 30" width="2.218" height="4.958" transform="translate(130.64 276.497)" fill="#1ed760"/>
        <path id="Path_15" data-name="Path 15" d="M292.438,120.37v1.24h.887v2.479h-.887v1.239h2.218V120.37Z" transform="translate(-161.798 141.177)" fill="#1ed760"/>
        <path id="Path_16" data-name="Path 16" d="M292.438,180.556V181.8h.887v2.479h-.887v1.239h2.218v-4.958Z" transform="translate(-161.798 103.417)" fill="#1ed760"/>
        <path id="Path_17" data-name="Path 17" d="M292.438,200.617v1.24h.887v2.479h-.887v1.239h2.218v-4.958Z" transform="translate(-161.798 90.831)" fill="#1ed760"/>
        <path id="Path_18" data-name="Path 18" d="M292.438,138.889v1.239h.887v2.479h-.887v1.24h2.218v-4.958Z" transform="translate(-161.798 129.558)" fill="#1ed760"/>
        <path id="Path_19" data-name="Path 19" d="M292.438,260.8v1.24h.887v2.479h-.887v1.239h2.218V260.8Z" transform="translate(-161.798 53.071)" fill="#1ed760"/>
        <rect id="Rectangle_31" data-name="Rectangle 31" width="2.218" height="4.958" transform="translate(97.522 336.299)" fill="#1ed760"/>
        <rect id="Rectangle_32" data-name="Rectangle 32" width="2.218" height="4.958" transform="translate(101.515 327.674)" fill="#1ed760"/>
        <rect id="Rectangle_33" data-name="Rectangle 33" width="2.218" height="4.958" transform="translate(97.522 355.223)" fill="#1ed760"/>
        <rect id="Rectangle_34" data-name="Rectangle 34" width="2.218" height="4.958" transform="translate(101.515 342.049)" fill="#1ed760"/>
        <path id="Path_20" data-name="Path 20" d="M184.414,300.926v1.239h.887v2.479h-.887v1.24h2.218v-4.958Z" transform="translate(-86.892 27.897)" fill="#1ed760"/>
        <path id="Path_21" data-name="Path 21" d="M184.414,395.062V396.3h.887v2.479h-.887v1.239h2.218v-4.958Z" transform="translate(-86.892 -31.163)" fill="#1ed760"/>
        <rect id="Rectangle_35" data-name="Rectangle 35" width="2.218" height="4.958" transform="translate(123.637 240.272)" fill="#1ed760"/>
        <rect id="Rectangle_36" data-name="Rectangle 36" width="2.218" height="4.958" transform="translate(123.637 276.497)" fill="#1ed760"/>
        <rect id="Rectangle_37" data-name="Rectangle 37" width="3.106" height="0.62" transform="translate(123.647 349.645)" fill="#1ed760"/>
        <path id="Path_22" data-name="Path 22" d="M269.29,100.309v1.239h.887v2.479h-.887v1.239h2.218v-4.958Z" transform="translate(-145.653 154.837)" fill="#1ed760"/>
        <path id="Path_23" data-name="Path 23" d="M269.29,120.37v1.24h.887v2.479h-.887v1.239h2.218V120.37Z" transform="translate(-145.653 141.177)" fill="#1ed760"/>
        <path id="Path_24" data-name="Path 24" d="M269.29,140.432v1.24h.887v2.479h-.887v1.24h2.218v-4.958Z" transform="translate(-145.653 128.59)" fill="#1ed760"/>
        <rect id="Rectangle_38" data-name="Rectangle 38" width="2.218" height="4.958" transform="translate(123.637 291.448)" fill="#1ed760"/>
        <path id="Path_25" data-name="Path 25" d="M269.29,180.556V181.8h.887v2.479h-.887v1.239h2.218v-4.958Z" transform="translate(-145.653 103.417)" fill="#1ed760"/>
        <rect id="Rectangle_39" data-name="Rectangle 39" width="2.218" height="4.958" transform="translate(123.637 306.398)" fill="#1ed760"/>
        <path id="Path_26" data-name="Path 26" d="M269.29,220.679v1.239h.887V224.4h-.887v1.24h2.218v-4.958Z" transform="translate(-145.653 78.244)" fill="#1ed760"/>
        <rect id="Rectangle_40" data-name="Rectangle 40" width="2.218" height="4.958" transform="translate(123.637 321.348)" fill="#1ed760"/>
        <path id="Path_27" data-name="Path 27" d="M269.29,260.8v1.24h.887v2.479h-.887v1.239h2.218V260.8Z" transform="translate(-145.653 53.071)" fill="#1ed760"/>
        <rect id="Rectangle_41" data-name="Rectangle 41" width="2.218" height="4.958" transform="translate(123.637 336.299)" fill="#1ed760"/>
        <rect id="Rectangle_42" data-name="Rectangle 42" width="2.218" height="4.958" transform="translate(123.637 355.223)" fill="#1ed760"/>
        <path id="Path_28" data-name="Path 28" d="M269.29,300.926v1.239h.887v2.479h-.887v1.24h2.218v-4.958Z" transform="translate(-145.653 27.897)" fill="#1ed760"/>
        <path id="Path_29" data-name="Path 29" d="M269.29,395.062V396.3h.887v2.479h-.887v1.239h2.218v-4.958Z" transform="translate(-145.653 -31.163)" fill="#1ed760"/>
        <rect id="Rectangle_43" data-name="Rectangle 43" width="2.218" height="4.958" transform="translate(134.841 240.272)" fill="#1ed760"/>
        <rect id="Rectangle_44" data-name="Rectangle 44" width="2.218" height="4.958" transform="translate(134.841 276.497)" fill="#1ed760"/>
        <rect id="Rectangle_45" data-name="Rectangle 45" width="3.106" height="0.62" transform="translate(134.854 349.645)" fill="#1ed760"/>
        <path id="Path_30" data-name="Path 30" d="M306.327,100.309v1.239h.887v2.479h-.887v1.239h2.218v-4.958Z" transform="translate(-171.486 154.837)" fill="#1ed760"/>
        <path id="Path_31" data-name="Path 31" d="M306.327,120.37v1.24h.887v2.479h-.887v1.239h2.218V120.37Z" transform="translate(-171.486 141.177)" fill="#1ed760"/>
        <path id="Path_32" data-name="Path 32" d="M306.327,140.432v1.24h.887v2.479h-.887v1.24h2.218v-4.958Z" transform="translate(-171.486 128.59)" fill="#1ed760"/>
        <rect id="Rectangle_46" data-name="Rectangle 46" width="2.218" height="4.958" transform="translate(134.841 291.448)" fill="#1ed760"/>
        <path id="Path_33" data-name="Path 33" d="M306.327,180.556V181.8h.887v2.479h-.887v1.239h2.218v-4.958Z" transform="translate(-171.486 103.417)" fill="#1ed760"/>
        <rect id="Rectangle_47" data-name="Rectangle 47" width="2.218" height="4.958" transform="translate(134.841 306.398)" fill="#1ed760"/>
        <path id="Path_34" data-name="Path 34" d="M306.327,220.679v1.239h.887V224.4h-.887v1.24h2.218v-4.958Z" transform="translate(-171.486 78.244)" fill="#1ed760"/>
        <rect id="Rectangle_48" data-name="Rectangle 48" width="2.218" height="4.958" transform="translate(134.841 321.348)" fill="#1ed760"/>
        <path id="Path_35" data-name="Path 35" d="M306.327,260.8v1.24h.887v2.479h-.887v1.239h2.218V260.8Z" transform="translate(-171.486 53.071)" fill="#1ed760"/>
        <rect id="Rectangle_49" data-name="Rectangle 49" width="2.218" height="4.958" transform="translate(134.841 336.299)" fill="#1ed760"/>
        <rect id="Rectangle_50" data-name="Rectangle 50" width="2.218" height="4.958" transform="translate(134.841 355.223)" fill="#1ed760"/>
        <path id="Path_36" data-name="Path 36" d="M306.327,300.926v1.239h.887v2.479h-.887v1.24h2.218v-4.958Z" transform="translate(-171.486 27.897)" fill="#1ed760"/>
        <path id="Path_37" data-name="Path 37" d="M306.327,395.062V396.3h.887v2.479h-.887v1.239h2.218v-4.958Z" transform="translate(-171.486 -31.163)" fill="#1ed760"/>
        <path id="Path_38" data-name="Path 38" d="M198.3,373.457V374.7h.887v2.479H198.3v1.239h2.219v-4.958Z" transform="translate(-96.787 -18.234)" fill="#1ed760"/>
        <path id="Path_39" data-name="Path 39" d="M198.3,393.519v1.239h.887v2.479H198.3v1.239h2.219v-4.958Z" transform="translate(-96.787 -30.239)" fill="#1ed760"/>
        <path id="Path_40" data-name="Path 40" d="M158.179,160.494v1.239h.887v2.479h-.887v1.24H160.4v-4.958Z" transform="translate(-68.199 116.003)" fill="#1ed760"/>
        <path id="Path_41" data-name="Path 41" d="M158.179,239.2v1.239h.887v2.479h-.887v1.239H160.4V239.2Z" transform="translate(-68.199 66.625)" fill="#1ed760"/>
        <path id="Path_42" data-name="Path 42" d="M158.179,259.259v1.24h.887v2.479h-.887v1.239H160.4v-4.958Z" transform="translate(-68.199 54.039)" fill="#1ed760"/>
        <path id="Path_43" data-name="Path 43" d="M158.179,299.383v1.239h.887V303.1h-.887v1.239H160.4v-4.958Z" transform="translate(-68.199 28.866)" fill="#1ed760"/>
        <path id="Path_44" data-name="Path 44" d="M158.179,356.481v1.24h.887V360.2h-.887v1.239H160.4v-4.958Z" transform="translate(-68.199 -8.076)" fill="#1ed760"/>
        <path id="Path_45" data-name="Path 45" d="M158.179,373.457V374.7h.887v2.479h-.887v1.239H160.4v-4.958Z" transform="translate(-68.199 -18.234)" fill="#1ed760"/>
        <rect id="Rectangle_51" data-name="Rectangle 51" width="2.218" height="4.958" transform="translate(113.05 241.511)" fill="#1ed760"/>
        <rect id="Rectangle_52" data-name="Rectangle 52" width="2.218" height="4.958" transform="translate(113.05 249.568)" fill="#1ed760"/>
        <rect id="Rectangle_53" data-name="Rectangle 53" width="3.106" height="0.62" transform="translate(112.163 258.244)" fill="#1ed760"/>
        <rect id="Rectangle_54" data-name="Rectangle 54" width="3.106" height="0.62" transform="translate(112.163 293.879)" fill="#1ed760"/>
        <rect id="Rectangle_55" data-name="Rectangle 55" width="3.106" height="0.62" transform="translate(112.163 300.219)" fill="#1ed760"/>
        <path id="Path_46" data-name="Path 46" d="M238.426,121.914v1.239h.887v2.479h-.887v1.239h2.218v-4.958Z" transform="translate(-125.376 140.208)" fill="#1ed760"/>
        <path id="Path_47" data-name="Path 47" d="M238.426,160.494v1.239h.887v2.479h-.887v1.24h2.218v-4.958Z" transform="translate(-125.376 116.003)" fill="#1ed760"/>
        <path id="Path_48" data-name="Path 48" d="M238.426,239.2v1.239h.887v2.479h-.887v1.239h2.218V239.2Z" transform="translate(-125.376 66.625)" fill="#1ed760"/>
        <rect id="Rectangle_56" data-name="Rectangle 56" width="2.218" height="4.958" transform="translate(140.91 291.448)" fill="#1ed760"/>
        <rect id="Rectangle_57" data-name="Rectangle 57" width="2.218" height="4.958" transform="translate(140.91 298.923)" fill="#1ed760"/>
        <rect id="Rectangle_58" data-name="Rectangle 58" width="3.106" height="0.62" transform="translate(139.99 307.137)" fill="#1ed760"/>
        <rect id="Rectangle_59" data-name="Rectangle 59" width="3.106" height="0.62" transform="translate(139.99 342.208)" fill="#1ed760"/>
        <rect id="Rectangle_60" data-name="Rectangle 60" width="3.106" height="0.62" transform="translate(139.99 349.025)" fill="#1ed760"/>
        <path id="Path_49" data-name="Path 49" d="M326.389,256.173v1.239h.887v2.479h-.887v1.24h2.218v-4.958Z" transform="translate(-185.479 55.975)" fill="#1ed760"/>
        <path id="Path_50" data-name="Path 50" d="M326.389,294.753v1.24h.887v2.479h-.887v1.24h2.218v-4.958Z" transform="translate(-185.479 31.77)" fill="#1ed760"/>
        <path id="Path_51" data-name="Path 51" d="M326.389,373.457V374.7h.887v2.479h-.887v1.239h2.218v-4.958Z" transform="translate(-185.479 -18.234)" fill="#1ed760"/>
        <rect id="Rectangle_61" data-name="Rectangle 61" width="2.218" height="4.958" transform="translate(148.379 241.511)" fill="#1ed760"/>
        <rect id="Rectangle_62" data-name="Rectangle 62" width="2.218" height="4.958" transform="translate(156.315 240.272)" fill="#1ed760"/>
        <rect id="Rectangle_63" data-name="Rectangle 63" width="2.218" height="4.958" transform="translate(160.516 240.272)" fill="#1ed760"/>
        <rect id="Rectangle_64" data-name="Rectangle 64" width="2.218" height="4.958" transform="translate(160.516 255.146)" fill="#1ed760"/>
        <rect id="Rectangle_65" data-name="Rectangle 65" width="2.218" height="4.958" transform="translate(165.185 247.709)" fill="#1ed760"/>
        <rect id="Rectangle_66" data-name="Rectangle 66" width="2.218" height="4.958" transform="translate(165.185 255.765)" fill="#1ed760"/>
        <rect id="Rectangle_67" data-name="Rectangle 67" width="2.218" height="4.958" transform="translate(160.516 269.022)" fill="#1ed760"/>
        <rect id="Rectangle_68" data-name="Rectangle 68" width="2.218" height="4.958" transform="translate(165.185 276.497)" fill="#1ed760"/>
        <rect id="Rectangle_69" data-name="Rectangle 69" width="2.218" height="4.958" transform="translate(160.516 304.673)" fill="#1ed760"/>
        <rect id="Rectangle_70" data-name="Rectangle 70" width="2.218" height="4.958" transform="translate(156.315 276.497)" fill="#1ed760"/>
        <rect id="Rectangle_71" data-name="Rectangle 71" width="2.218" height="4.958" transform="translate(148.379 249.568)" fill="#1ed760"/>
        <rect id="Rectangle_72" data-name="Rectangle 72" width="2.218" height="4.958" transform="translate(148.379 320.773)" fill="#1ed760"/>
        <rect id="Rectangle_73" data-name="Rectangle 73" width="2.218" height="4.958" transform="translate(148.379 335.723)" fill="#1ed760"/>
        <rect id="Rectangle_74" data-name="Rectangle 74" width="2.218" height="4.958" transform="translate(148.379 341.588)" fill="#1ed760"/>
        <rect id="Rectangle_75" data-name="Rectangle 75" width="3.106" height="0.62" transform="translate(147.462 258.244)" fill="#1ed760"/>
        <rect id="Rectangle_76" data-name="Rectangle 76" width="3.106" height="0.62" transform="translate(160.069 265.681)" fill="#1ed760"/>
        <rect id="Rectangle_77" data-name="Rectangle 77" width="3.106" height="0.62" transform="translate(147.462 293.879)" fill="#1ed760"/>
        <rect id="Rectangle_78" data-name="Rectangle 78" width="3.106" height="0.62" transform="translate(147.462 300.219)" fill="#1ed760"/>
        <rect id="Rectangle_79" data-name="Rectangle 79" width="3.106" height="0.62" transform="translate(160.069 337.111)" fill="#1ed760"/>
        <rect id="Rectangle_80" data-name="Rectangle 80" width="3.106" height="0.62" transform="translate(156.334 349.645)" fill="#1ed760"/>
        <path id="Path_52" data-name="Path 52" d="M351.08,121.914v1.239h.887v2.479h-.887v1.239H353.3v-4.958Z" transform="translate(-202.701 140.208)" fill="#1ed760"/>
        <path id="Path_53" data-name="Path 53" d="M377.315,100.309v1.239h.887v2.479h-.887v1.239h2.218v-4.958Z" transform="translate(-221 154.837)" fill="#1ed760"/>
        <path id="Path_54" data-name="Path 54" d="M406.636,120.37v1.24h.887v2.479h-.887v1.239h2.218V120.37Z" transform="translate(-241.452 141.177)" fill="#1ed760"/>
        <path id="Path_55" data-name="Path 55" d="M406.636,180.556V181.8h.887v2.479h-.887v1.239h2.218v-4.958Z" transform="translate(-241.452 103.417)" fill="#1ed760"/>
        <path id="Path_56" data-name="Path 56" d="M406.636,200.617v1.24h.887v2.479h-.887v1.239h2.218v-4.958Z" transform="translate(-241.452 90.831)" fill="#1ed760"/>
        <path id="Path_57" data-name="Path 57" d="M406.636,138.889v1.239h.887v2.479h-.887v1.24h2.218v-4.958Z" transform="translate(-241.452 129.558)" fill="#1ed760"/>
        <path id="Path_58" data-name="Path 58" d="M391.2,81.79v1.24h.887v2.479H391.2v1.24h2.218V81.79Z" transform="translate(-230.688 165.919)" fill="#1ed760"/>
        <rect id="Rectangle_81" data-name="Rectangle 81" width="2.218" height="4.958" transform="translate(160.516 283.973)" fill="#1ed760"/>
        <rect id="Rectangle_82" data-name="Rectangle 82" width="2.218" height="4.958" transform="translate(160.516 297.773)" fill="#1ed760"/>
        <path id="Path_59" data-name="Path 59" d="M391.2,199.074v1.239h.887v2.479H391.2v1.24h2.218v-4.958Z" transform="translate(-230.688 91.799)" fill="#1ed760"/>
        <path id="Path_60" data-name="Path 60" d="M377.315,120.37v1.24h.887v2.479h-.887v1.239h2.218V120.37Z" transform="translate(-221 141.177)" fill="#1ed760"/>
        <path id="Path_61" data-name="Path 61" d="M377.315,140.432v1.24h.887v2.479h-.887v1.24h2.218v-4.958Z" transform="translate(-221 128.59)" fill="#1ed760"/>
        <rect id="Rectangle_83" data-name="Rectangle 83" width="2.218" height="4.958" transform="translate(156.315 291.448)" fill="#1ed760"/>
        <path id="Path_62" data-name="Path 62" d="M377.315,180.556V181.8h.887v2.479h-.887v1.239h2.218v-4.958Z" transform="translate(-221 103.417)" fill="#1ed760"/>
        <rect id="Rectangle_84" data-name="Rectangle 84" width="2.218" height="4.958" transform="translate(156.315 306.398)" fill="#1ed760"/>
        <path id="Path_63" data-name="Path 63" d="M377.315,220.679v1.239h.887V224.4h-.887v1.24h2.218v-4.958Z" transform="translate(-221 78.244)" fill="#1ed760"/>
        <rect id="Rectangle_85" data-name="Rectangle 85" width="2.218" height="4.958" transform="translate(156.315 321.348)" fill="#1ed760"/>
        <rect id="Rectangle_86" data-name="Rectangle 86" width="2.218" height="4.958" transform="translate(160.516 320.198)" fill="#1ed760"/>
        <path id="Path_64" data-name="Path 64" d="M377.315,260.8v1.24h.887v2.479h-.887v1.239h2.218V260.8Z" transform="translate(-221 53.071)" fill="#1ed760"/>
        <path id="Path_65" data-name="Path 65" d="M406.636,260.8v1.24h.887v2.479h-.887v1.239h2.218V260.8Z" transform="translate(-241.452 53.071)" fill="#1ed760"/>
        <rect id="Rectangle_87" data-name="Rectangle 87" width="2.218" height="4.958" transform="translate(188.992 247.709)" fill="#1ed760"/>
        <rect id="Rectangle_88" data-name="Rectangle 88" width="2.218" height="4.958" transform="translate(188.992 255.765)" fill="#1ed760"/>
        <rect id="Rectangle_89" data-name="Rectangle 89" width="2.218" height="4.958" transform="translate(188.992 276.497)" fill="#1ed760"/>
        <path id="Path_66" data-name="Path 66" d="M485.34,120.37v1.24h.887v2.479h-.887v1.239h2.218V120.37Z" transform="translate(-296.348 141.177)" fill="#1ed760"/>
        <path id="Path_67" data-name="Path 67" d="M485.34,180.556V181.8h.887v2.479h-.887v1.239h2.218v-4.958Z" transform="translate(-296.348 103.417)" fill="#1ed760"/>
        <path id="Path_68" data-name="Path 68" d="M485.34,200.617v1.24h.887v2.479h-.887v1.239h2.218v-4.958Z" transform="translate(-296.348 90.831)" fill="#1ed760"/>
        <path id="Path_69" data-name="Path 69" d="M485.34,138.889v1.239h.887v2.479h-.887v1.24h2.218v-4.958Z" transform="translate(-296.348 129.558)" fill="#1ed760"/>
        <path id="Path_70" data-name="Path 70" d="M485.34,260.8v1.24h.887v2.479h-.887v1.239h2.218V260.8Z" transform="translate(-296.348 53.071)" fill="#1ed760"/>
        <rect id="Rectangle_90" data-name="Rectangle 90" width="2.218" height="4.958" transform="translate(156.315 336.299)" fill="#1ed760"/>
        <rect id="Rectangle_91" data-name="Rectangle 91" width="2.218" height="4.958" transform="translate(160.516 327.674)" fill="#1ed760"/>
        <rect id="Rectangle_92" data-name="Rectangle 92" width="2.218" height="4.958" transform="translate(156.315 355.223)" fill="#1ed760"/>
        <rect id="Rectangle_93" data-name="Rectangle 93" width="2.218" height="4.958" transform="translate(160.516 342.049)" fill="#1ed760"/>
        <path id="Path_71" data-name="Path 71" d="M377.315,300.926v1.239h.887v2.479h-.887v1.24h2.218v-4.958Z" transform="translate(-221 27.897)" fill="#1ed760"/>
        <path id="Path_72" data-name="Path 72" d="M377.315,395.062V396.3h.887v2.479h-.887v1.239h2.218v-4.958Z" transform="translate(-221 -31.163)" fill="#1ed760"/>
        <rect id="Rectangle_94" data-name="Rectangle 94" width="2.218" height="4.958" transform="translate(181.99 240.272)" fill="#1ed760"/>
        <rect id="Rectangle_95" data-name="Rectangle 95" width="2.218" height="4.958" transform="translate(181.99 276.497)" fill="#1ed760"/>
        <rect id="Rectangle_96" data-name="Rectangle 96" width="3.106" height="0.62" transform="translate(182.016 349.645)" fill="#1ed760"/>
        <path id="Path_73" data-name="Path 73" d="M462.191,100.309v1.239h.887v2.479h-.887v1.239h2.218v-4.958Z" transform="translate(-280.201 154.837)" fill="#1ed760"/>
        <path id="Path_74" data-name="Path 74" d="M462.191,120.37v1.24h.887v2.479h-.887v1.239h2.218V120.37Z" transform="translate(-280.201 141.177)" fill="#1ed760"/>
        <path id="Path_75" data-name="Path 75" d="M462.191,140.432v1.24h.887v2.479h-.887v1.24h2.218v-4.958Z" transform="translate(-280.201 128.59)" fill="#1ed760"/>
        <rect id="Rectangle_97" data-name="Rectangle 97" width="2.218" height="4.958" transform="translate(181.99 291.448)" fill="#1ed760"/>
        <path id="Path_76" data-name="Path 76" d="M462.191,180.556V181.8h.887v2.479h-.887v1.239h2.218v-4.958Z" transform="translate(-280.201 103.417)" fill="#1ed760"/>
        <rect id="Rectangle_98" data-name="Rectangle 98" width="2.218" height="4.958" transform="translate(181.99 306.398)" fill="#1ed760"/>
        <path id="Path_77" data-name="Path 77" d="M462.191,220.679v1.239h.887V224.4h-.887v1.24h2.218v-4.958Z" transform="translate(-280.201 78.244)" fill="#1ed760"/>
        <rect id="Rectangle_99" data-name="Rectangle 99" width="2.218" height="4.958" transform="translate(181.99 321.348)" fill="#1ed760"/>
        <path id="Path_78" data-name="Path 78" d="M462.191,260.8v1.24h.887v2.479h-.887v1.239h2.218V260.8Z" transform="translate(-280.201 53.071)" fill="#1ed760"/>
        <rect id="Rectangle_100" data-name="Rectangle 100" width="2.218" height="4.958" transform="translate(181.99 336.299)" fill="#1ed760"/>
        <rect id="Rectangle_101" data-name="Rectangle 101" width="2.218" height="4.958" transform="translate(181.99 355.223)" fill="#1ed760"/>
        <path id="Path_79" data-name="Path 79" d="M462.191,300.926v1.239h.887v2.479h-.887v1.24h2.218v-4.958Z" transform="translate(-280.201 27.897)" fill="#1ed760"/>
        <path id="Path_80" data-name="Path 80" d="M462.191,395.062V396.3h.887v2.479h-.887v1.239h2.218v-4.958Z" transform="translate(-280.201 -31.163)" fill="#1ed760"/>
        <rect id="Rectangle_102" data-name="Rectangle 102" width="2.218" height="4.958" transform="translate(193.194 240.272)" fill="#1ed760"/>
        <rect id="Rectangle_103" data-name="Rectangle 103" width="2.218" height="4.958" transform="translate(193.194 276.497)" fill="#1ed760"/>
        <rect id="Rectangle_104" data-name="Rectangle 104" width="3.106" height="0.62" transform="translate(193.222 349.645)" fill="#1ed760"/>
        <path id="Path_81" data-name="Path 81" d="M499.228,100.309v1.239h.888v2.479h-.888v1.239h2.218v-4.958Z" transform="translate(-306.035 154.837)" fill="#1ed760"/>
        <path id="Path_82" data-name="Path 82" d="M499.228,120.37v1.24h.888v2.479h-.888v1.239h2.218V120.37Z" transform="translate(-306.035 141.177)" fill="#1ed760"/>
        <path id="Path_83" data-name="Path 83" d="M499.228,140.432v1.24h.888v2.479h-.888v1.24h2.218v-4.958Z" transform="translate(-306.035 128.59)" fill="#1ed760"/>
        <rect id="Rectangle_105" data-name="Rectangle 105" width="2.218" height="4.958" transform="translate(193.194 291.448)" fill="#1ed760"/>
        <path id="Path_84" data-name="Path 84" d="M499.228,180.556V181.8h.888v2.479h-.888v1.239h2.218v-4.958Z" transform="translate(-306.035 103.417)" fill="#1ed760"/>
        <rect id="Rectangle_106" data-name="Rectangle 106" width="2.218" height="4.958" transform="translate(193.194 306.398)" fill="#1ed760"/>
        <path id="Path_85" data-name="Path 85" d="M499.228,220.679v1.239h.888V224.4h-.888v1.24h2.218v-4.958Z" transform="translate(-306.035 78.244)" fill="#1ed760"/>
        <rect id="Rectangle_107" data-name="Rectangle 107" width="2.218" height="4.958" transform="translate(193.194 321.348)" fill="#1ed760"/>
        <path id="Path_86" data-name="Path 86" d="M499.228,260.8v1.24h.888v2.479h-.888v1.239h2.218V260.8Z" transform="translate(-306.035 53.071)" fill="#1ed760"/>
        <rect id="Rectangle_108" data-name="Rectangle 108" width="2.218" height="4.958" transform="translate(193.194 336.299)" fill="#1ed760"/>
        <rect id="Rectangle_109" data-name="Rectangle 109" width="2.218" height="4.958" transform="translate(193.194 355.223)" fill="#1ed760"/>
        <path id="Path_87" data-name="Path 87" d="M499.228,300.926v1.239h.888v2.479h-.888v1.24h2.218v-4.958Z" transform="translate(-306.035 27.897)" fill="#1ed760"/>
        <path id="Path_88" data-name="Path 88" d="M499.228,395.062V396.3h.888v2.479h-.888v1.239h2.218v-4.958Z" transform="translate(-306.035 -31.163)" fill="#1ed760"/>
        <path id="Path_89" data-name="Path 89" d="M391.2,373.457V374.7h.887v2.479H391.2v1.239h2.218v-4.958Z" transform="translate(-230.688 -18.234)" fill="#1ed760"/>
        <path id="Path_90" data-name="Path 90" d="M391.2,393.519v1.239h.887v2.479H391.2v1.239h2.218v-4.958Z" transform="translate(-230.688 -30.239)" fill="#1ed760"/>
        <path id="Path_91" data-name="Path 91" d="M351.08,160.494v1.239h.887v2.479h-.887v1.24H353.3v-4.958Z" transform="translate(-202.701 116.003)" fill="#1ed760"/>
        <path id="Path_92" data-name="Path 92" d="M351.08,239.2v1.239h.887v2.479h-.887v1.239H353.3V239.2Z" transform="translate(-202.701 66.625)" fill="#1ed760"/>
        <path id="Path_93" data-name="Path 93" d="M351.08,259.259v1.24h.887v2.479h-.887v1.239H353.3v-4.958Z" transform="translate(-202.701 54.039)" fill="#1ed760"/>
        <path id="Path_94" data-name="Path 94" d="M351.08,299.383v1.239h.887V303.1h-.887v1.239H353.3v-4.958Z" transform="translate(-202.701 28.866)" fill="#1ed760"/>
        <path id="Path_95" data-name="Path 95" d="M351.08,356.481v1.24h.887V360.2h-.887v1.239H353.3v-4.958Z" transform="translate(-202.701 -8.076)" fill="#1ed760"/>
        <path id="Path_96" data-name="Path 96" d="M351.08,373.457V374.7h.887v2.479h-.887v1.239H353.3v-4.958Z" transform="translate(-202.701 -18.234)" fill="#1ed760"/>
        <rect id="Rectangle_110" data-name="Rectangle 110" width="2.218" height="4.958" transform="translate(172.654 241.511)" fill="#1ed760"/>
        <rect id="Rectangle_111" data-name="Rectangle 111" width="2.218" height="4.958" transform="translate(172.654 249.568)" fill="#1ed760"/>
        <rect id="Rectangle_112" data-name="Rectangle 112" width="3.106" height="0.62" transform="translate(171.743 258.244)" fill="#1ed760"/>
        <rect id="Rectangle_113" data-name="Rectangle 113" width="3.106" height="0.62" transform="translate(171.743 293.879)" fill="#1ed760"/>
        <rect id="Rectangle_114" data-name="Rectangle 114" width="3.106" height="0.62" transform="translate(171.743 300.219)" fill="#1ed760"/>
        <path id="Path_97" data-name="Path 97" d="M431.327,121.914v1.239h.887v2.479h-.887v1.239h2.218v-4.958Z" transform="translate(-258.673 140.208)" fill="#1ed760"/>
        <path id="Path_98" data-name="Path 98" d="M431.327,160.494v1.239h.887v2.479h-.887v1.24h2.218v-4.958Z" transform="translate(-258.673 116.003)" fill="#1ed760"/>
        <path id="Path_99" data-name="Path 99" d="M431.327,239.2v1.239h.887v2.479h-.887v1.239h2.218V239.2Z" transform="translate(-258.673 66.625)" fill="#1ed760"/>
        <rect id="Rectangle_115" data-name="Rectangle 115" width="2.218" height="4.958" transform="translate(199.262 291.448)" fill="#1ed760"/>
        <rect id="Rectangle_116" data-name="Rectangle 116" width="2.218" height="4.958" transform="translate(199.262 298.923)" fill="#1ed760"/>
        <rect id="Rectangle_117" data-name="Rectangle 117" width="3.106" height="0.62" transform="translate(198.359 307.137)" fill="#1ed760"/>
        <rect id="Rectangle_118" data-name="Rectangle 118" width="3.106" height="0.62" transform="translate(198.359 342.208)" fill="#1ed760"/>
        <rect id="Rectangle_119" data-name="Rectangle 119" width="3.106" height="0.62" transform="translate(198.359 349.025)" fill="#1ed760"/>
        <path id="Path_100" data-name="Path 100" d="M519.29,256.173v1.239h.888v2.479h-.888v1.24h2.218v-4.958Z" transform="translate(-320.028 55.975)" fill="#1ed760"/>
        <path id="Path_101" data-name="Path 101" d="M519.29,294.753v1.24h.888v2.479h-.888v1.24h2.218v-4.958Z" transform="translate(-320.028 31.77)" fill="#1ed760"/>
        <path id="Path_102" data-name="Path 102" d="M519.29,373.457V374.7h.888v2.479h-.888v1.239h2.218v-4.958Z" transform="translate(-320.028 -18.234)" fill="#1ed760"/>
        <rect id="Rectangle_120" data-name="Rectangle 120" width="2.218" height="4.958" transform="translate(206.732 241.511)" fill="#1ed760"/>
        <rect id="Rectangle_121" data-name="Rectangle 121" width="2.218" height="4.958" transform="translate(214.667 240.272)" fill="#1ed760"/>
        <rect id="Rectangle_122" data-name="Rectangle 122" width="2.218" height="4.958" transform="translate(218.869 240.272)" fill="#1ed760"/>
        <rect id="Rectangle_123" data-name="Rectangle 123" width="2.218" height="4.958" transform="translate(218.869 255.146)" fill="#1ed760"/>
        <rect id="Rectangle_124" data-name="Rectangle 124" width="2.218" height="4.958" transform="translate(223.537 247.709)" fill="#1ed760"/>
        <rect id="Rectangle_125" data-name="Rectangle 125" width="2.218" height="4.958" transform="translate(223.537 255.765)" fill="#1ed760"/>
        <rect id="Rectangle_126" data-name="Rectangle 126" width="2.218" height="4.958" transform="translate(218.869 269.022)" fill="#1ed760"/>
        <rect id="Rectangle_127" data-name="Rectangle 127" width="2.218" height="4.958" transform="translate(223.537 276.497)" fill="#1ed760"/>
        <rect id="Rectangle_128" data-name="Rectangle 128" width="2.218" height="4.958" transform="translate(218.869 304.673)" fill="#1ed760"/>
        <rect id="Rectangle_129" data-name="Rectangle 129" width="2.218" height="4.958" transform="translate(214.667 276.497)" fill="#1ed760"/>
        <rect id="Rectangle_130" data-name="Rectangle 130" width="2.218" height="4.958" transform="translate(206.732 249.568)" fill="#1ed760"/>
        <rect id="Rectangle_131" data-name="Rectangle 131" width="2.218" height="4.958" transform="translate(206.732 320.773)" fill="#1ed760"/>
        <rect id="Rectangle_132" data-name="Rectangle 132" width="2.218" height="4.958" transform="translate(206.732 335.723)" fill="#1ed760"/>
        <rect id="Rectangle_133" data-name="Rectangle 133" width="2.218" height="4.958" transform="translate(206.732 341.588)" fill="#1ed760"/>
        <rect id="Rectangle_134" data-name="Rectangle 134" width="3.106" height="0.62" transform="translate(205.83 258.244)" fill="#1ed760"/>
        <rect id="Rectangle_135" data-name="Rectangle 135" width="3.106" height="0.62" transform="translate(218.438 265.681)" fill="#1ed760"/>
        <rect id="Rectangle_136" data-name="Rectangle 136" width="3.106" height="0.62" transform="translate(205.83 293.879)" fill="#1ed760"/>
        <rect id="Rectangle_137" data-name="Rectangle 137" width="3.106" height="0.62" transform="translate(205.83 300.219)" fill="#1ed760"/>
        <rect id="Rectangle_138" data-name="Rectangle 138" width="3.106" height="0.62" transform="translate(218.438 337.111)" fill="#1ed760"/>
        <rect id="Rectangle_139" data-name="Rectangle 139" width="3.106" height="0.62" transform="translate(214.702 349.645)" fill="#1ed760"/>
        <path id="Path_103" data-name="Path 103" d="M543.981,121.914v1.239h.887v2.479h-.887v1.239H546.2v-4.958Z" transform="translate(-337.25 140.208)" fill="#1ed760"/>
        <path id="Path_104" data-name="Path 104" d="M570.216,100.309v1.239h.887v2.479h-.887v1.239h2.218v-4.958Z" transform="translate(-355.549 154.837)" fill="#1ed760"/>
        <path id="Path_105" data-name="Path 105" d="M599.537,120.37v1.24h.887v2.479h-.887v1.239h2.218V120.37Z" transform="translate(-376 141.177)" fill="#1ed760"/>
        <path id="Path_106" data-name="Path 106" d="M599.537,180.556V181.8h.887v2.479h-.887v1.239h2.218v-4.958Z" transform="translate(-376 103.417)" fill="#1ed760"/>
        <path id="Path_107" data-name="Path 107" d="M599.537,200.617v1.24h.887v2.479h-.887v1.239h2.218v-4.958Z" transform="translate(-376 90.831)" fill="#1ed760"/>
        <path id="Path_108" data-name="Path 108" d="M599.537,138.889v1.239h.887v2.479h-.887v1.24h2.218v-4.958Z" transform="translate(-376 129.558)" fill="#1ed760"/>
        <path id="Path_109" data-name="Path 109" d="M584.105,81.79v1.24h.887v2.479h-.887v1.24h2.218V81.79Z" transform="translate(-365.236 165.919)" fill="#1ed760"/>
        <rect id="Rectangle_140" data-name="Rectangle 140" width="2.218" height="4.958" transform="translate(218.869 283.973)" fill="#1ed760"/>
        <rect id="Rectangle_141" data-name="Rectangle 141" width="2.218" height="4.958" transform="translate(218.869 297.773)" fill="#1ed760"/>
        <path id="Path_110" data-name="Path 110" d="M584.105,199.074v1.239h.887v2.479h-.887v1.24h2.218v-4.958Z" transform="translate(-365.236 91.799)" fill="#1ed760"/>
        <path id="Path_111" data-name="Path 111" d="M570.216,120.37v1.24h.887v2.479h-.887v1.239h2.218V120.37Z" transform="translate(-355.549 141.177)" fill="#1ed760"/>
        <path id="Path_112" data-name="Path 112" d="M570.216,140.432v1.24h.887v2.479h-.887v1.24h2.218v-4.958Z" transform="translate(-355.549 128.59)" fill="#1ed760"/>
        <rect id="Rectangle_142" data-name="Rectangle 142" width="2.218" height="4.958" transform="translate(214.667 291.448)" fill="#1ed760"/>
        <path id="Path_113" data-name="Path 113" d="M570.216,180.556V181.8h.887v2.479h-.887v1.239h2.218v-4.958Z" transform="translate(-355.549 103.417)" fill="#1ed760"/>
        <rect id="Rectangle_143" data-name="Rectangle 143" width="2.218" height="4.958" transform="translate(214.667 306.398)" fill="#1ed760"/>
        <path id="Path_114" data-name="Path 114" d="M570.216,220.679v1.239h.887V224.4h-.887v1.24h2.218v-4.958Z" transform="translate(-355.549 78.244)" fill="#1ed760"/>
        <rect id="Rectangle_144" data-name="Rectangle 144" width="2.218" height="4.958" transform="translate(214.667 321.348)" fill="#1ed760"/>
        <rect id="Rectangle_145" data-name="Rectangle 145" width="2.218" height="4.958" transform="translate(218.869 320.198)" fill="#1ed760"/>
        <path id="Path_115" data-name="Path 115" d="M570.216,260.8v1.24h.887v2.479h-.887v1.239h2.218V260.8Z" transform="translate(-355.549 53.071)" fill="#1ed760"/>
        <path id="Path_116" data-name="Path 116" d="M599.537,260.8v1.24h.887v2.479h-.887v1.239h2.218V260.8Z" transform="translate(-376 53.071)" fill="#1ed760"/>
        <rect id="Rectangle_146" data-name="Rectangle 146" width="2.218" height="4.958" transform="translate(247.854 247.709)" fill="#1ed760"/>
        <rect id="Rectangle_147" data-name="Rectangle 147" width="2.218" height="4.958" transform="translate(247.854 255.765)" fill="#1ed760"/>
        <rect id="Rectangle_148" data-name="Rectangle 148" width="2.218" height="4.958" transform="translate(247.854 276.497)" fill="#1ed760"/>
        <path id="Path_117" data-name="Path 117" d="M678.241,120.37v1.24h.887v2.479h-.887v1.239h2.218V120.37Z" transform="translate(-430.387 141.177)" fill="#1ed760"/>
        <path id="Path_118" data-name="Path 118" d="M678.241,180.556V181.8h.887v2.479h-.887v1.239h2.218v-4.958Z" transform="translate(-430.387 103.417)" fill="#1ed760"/>
        <path id="Path_119" data-name="Path 119" d="M678.241,200.617v1.24h.887v2.479h-.887v1.239h2.218v-4.958Z" transform="translate(-430.387 90.831)" fill="#1ed760"/>
        <path id="Path_120" data-name="Path 120" d="M678.241,138.889v1.239h.887v2.479h-.887v1.24h2.218v-4.958Z" transform="translate(-430.387 129.558)" fill="#1ed760"/>
        <path id="Path_121" data-name="Path 121" d="M678.241,260.8v1.24h.887v2.479h-.887v1.239h2.218V260.8Z" transform="translate(-430.387 53.071)" fill="#1ed760"/>
        <rect id="Rectangle_149" data-name="Rectangle 149" width="2.218" height="4.958" transform="translate(214.667 336.299)" fill="#1ed760"/>
        <rect id="Rectangle_150" data-name="Rectangle 150" width="2.218" height="4.958" transform="translate(218.869 327.674)" fill="#1ed760"/>
        <rect id="Rectangle_151" data-name="Rectangle 151" width="2.218" height="4.958" transform="translate(214.667 355.223)" fill="#1ed760"/>
        <rect id="Rectangle_152" data-name="Rectangle 152" width="2.218" height="4.958" transform="translate(218.869 342.049)" fill="#1ed760"/>
        <path id="Path_122" data-name="Path 122" d="M570.216,300.926v1.239h.887v2.479h-.887v1.24h2.218v-4.958Z" transform="translate(-355.549 27.897)" fill="#1ed760"/>
        <path id="Path_123" data-name="Path 123" d="M570.216,395.062V396.3h.887v2.479h-.887v1.239h2.218v-4.958Z" transform="translate(-355.549 -31.163)" fill="#1ed760"/>
        <rect id="Rectangle_153" data-name="Rectangle 153" width="2.218" height="4.958" transform="translate(241.2 240.272)" fill="#1ed760"/>
        <rect id="Rectangle_154" data-name="Rectangle 154" width="2.218" height="4.958" transform="translate(241.2 276.497)" fill="#1ed760"/>
        <rect id="Rectangle_155" data-name="Rectangle 155" width="3.106" height="0.62" transform="translate(241.2 349.645)" fill="#1ed760"/>
        <path id="Path_124" data-name="Path 124" d="M655.093,100.309v1.239h.887v2.479h-.887v1.239h2.218v-4.958Z" transform="translate(-413.894 154.837)" fill="#1ed760"/>
        <path id="Path_125" data-name="Path 125" d="M655.093,120.37v1.24h.887v2.479h-.887v1.239h2.218V120.37Z" transform="translate(-413.894 141.177)" fill="#1ed760"/>
        <path id="Path_126" data-name="Path 126" d="M655.093,140.432v1.24h.887v2.479h-.887v1.24h2.218v-4.958Z" transform="translate(-413.894 128.59)" fill="#1ed760"/>
        <rect id="Rectangle_156" data-name="Rectangle 156" width="2.218" height="4.958" transform="translate(241.2 291.448)" fill="#1ed760"/>
        <path id="Path_127" data-name="Path 127" d="M655.093,180.556V181.8h.887v2.479h-.887v1.239h2.218v-4.958Z" transform="translate(-413.894 103.417)" fill="#1ed760"/>
        <rect id="Rectangle_157" data-name="Rectangle 157" width="2.218" height="4.958" transform="translate(241.2 306.398)" fill="#1ed760"/>
        <path id="Path_128" data-name="Path 128" d="M655.093,220.679v1.239h.887V224.4h-.887v1.24h2.218v-4.958Z" transform="translate(-413.894 78.244)" fill="#1ed760"/>
        <rect id="Rectangle_158" data-name="Rectangle 158" width="2.218" height="4.958" transform="translate(241.2 321.348)" fill="#1ed760"/>
        <path id="Path_129" data-name="Path 129" d="M655.093,260.8v1.24h.887v2.479h-.887v1.239h2.218V260.8Z" transform="translate(-413.894 53.071)" fill="#1ed760"/>
        <rect id="Rectangle_159" data-name="Rectangle 159" width="2.218" height="4.958" transform="translate(241.2 336.299)" fill="#1ed760"/>
        <rect id="Rectangle_160" data-name="Rectangle 160" width="2.218" height="4.958" transform="translate(241.2 355.223)" fill="#1ed760"/>
        <path id="Path_130" data-name="Path 130" d="M655.093,300.926v1.239h.887v2.479h-.887v1.24h2.218v-4.958Z" transform="translate(-413.894 27.897)" fill="#1ed760"/>
        <path id="Path_131" data-name="Path 131" d="M655.093,395.062V396.3h.887v2.479h-.887v1.239h2.218v-4.958Z" transform="translate(-413.894 -31.163)" fill="#1ed760"/>
        <rect id="Rectangle_161" data-name="Rectangle 161" width="2.218" height="4.958" transform="translate(251.847 240.272)" fill="#1ed760"/>
        <rect id="Rectangle_162" data-name="Rectangle 162" width="2.218" height="4.958" transform="translate(251.847 276.497)" fill="#1ed760"/>
        <rect id="Rectangle_163" data-name="Rectangle 163" width="3.106" height="0.62" transform="translate(251.847 349.645)" fill="#1ed760"/>
        <path id="Path_132" data-name="Path 132" d="M692.13,100.309v1.239h.887v2.479h-.887v1.239h2.218v-4.958Z" transform="translate(-440.283 154.837)" fill="#1ed760"/>
        <path id="Path_133" data-name="Path 133" d="M692.13,120.37v1.24h.887v2.479h-.887v1.239h2.218V120.37Z" transform="translate(-440.283 141.177)" fill="#1ed760"/>
        <path id="Path_134" data-name="Path 134" d="M692.13,140.432v1.24h.887v2.479h-.887v1.24h2.218v-4.958Z" transform="translate(-440.283 128.59)" fill="#1ed760"/>
        <rect id="Rectangle_164" data-name="Rectangle 164" width="2.218" height="4.958" transform="translate(251.847 291.448)" fill="#1ed760"/>
        <path id="Path_135" data-name="Path 135" d="M692.13,180.556V181.8h.887v2.479h-.887v1.239h2.218v-4.958Z" transform="translate(-440.283 103.417)" fill="#1ed760"/>
        <rect id="Rectangle_165" data-name="Rectangle 165" width="2.218" height="4.958" transform="translate(251.847 306.398)" fill="#1ed760"/>
        <path id="Path_136" data-name="Path 136" d="M692.13,220.679v1.239h.887V224.4h-.887v1.24h2.218v-4.958Z" transform="translate(-440.283 78.244)" fill="#1ed760"/>
        <rect id="Rectangle_166" data-name="Rectangle 166" width="2.218" height="4.958" transform="translate(251.847 321.348)" fill="#1ed760"/>
        <path id="Path_137" data-name="Path 137" d="M692.13,260.8v1.24h.887v2.479h-.887v1.239h2.218V260.8Z" transform="translate(-440.283 53.071)" fill="#1ed760"/>
        <rect id="Rectangle_167" data-name="Rectangle 167" width="2.218" height="4.958" transform="translate(251.847 336.299)" fill="#1ed760"/>
        <rect id="Rectangle_168" data-name="Rectangle 168" width="2.218" height="4.958" transform="translate(251.847 355.223)" fill="#1ed760"/>
        <path id="Path_138" data-name="Path 138" d="M692.13,300.926v1.239h.887v2.479h-.887v1.24h2.218v-4.958Z" transform="translate(-440.283 27.897)" fill="#1ed760"/>
        <path id="Path_139" data-name="Path 139" d="M692.13,395.062V396.3h.887v2.479h-.887v1.239h2.218v-4.958Z" transform="translate(-440.283 -31.163)" fill="#1ed760"/>
        <path id="Path_140" data-name="Path 140" d="M584.105,373.457V374.7h.887v2.479h-.887v1.239h2.218v-4.958Z" transform="translate(-365.236 -18.234)" fill="#1ed760"/>
        <path id="Path_141" data-name="Path 141" d="M584.105,393.519v1.239h.887v2.479h-.887v1.239h2.218v-4.958Z" transform="translate(-365.236 -30.239)" fill="#1ed760"/>
        <path id="Path_142" data-name="Path 142" d="M543.981,160.494v1.239h.887v2.479h-.887v1.24H546.2v-4.958Z" transform="translate(-337.25 116.003)" fill="#1ed760"/>
        <path id="Path_143" data-name="Path 143" d="M543.981,239.2v1.239h.887v2.479h-.887v1.239H546.2V239.2Z" transform="translate(-337.25 66.625)" fill="#1ed760"/>
        <path id="Path_144" data-name="Path 144" d="M543.981,259.259v1.24h.887v2.479h-.887v1.239H546.2v-4.958Z" transform="translate(-337.25 54.039)" fill="#1ed760"/>
        <path id="Path_145" data-name="Path 145" d="M543.981,299.383v1.239h.887V303.1h-.887v1.239H546.2v-4.958Z" transform="translate(-337.25 28.866)" fill="#1ed760"/>
        <path id="Path_146" data-name="Path 146" d="M543.981,356.481v1.24h.887V360.2h-.887v1.239H546.2v-4.958Z" transform="translate(-337.25 -8.076)" fill="#1ed760"/>
        <path id="Path_147" data-name="Path 147" d="M543.981,373.457V374.7h.887v2.479h-.887v1.239H546.2v-4.958Z" transform="translate(-337.25 -18.234)" fill="#1ed760"/>
        <rect id="Rectangle_169" data-name="Rectangle 169" width="2.218" height="4.958" transform="translate(232.326 241.511)" fill="#1ed760"/>
        <rect id="Rectangle_170" data-name="Rectangle 170" width="2.218" height="4.958" transform="translate(232.326 249.568)" fill="#1ed760"/>
        <rect id="Rectangle_171" data-name="Rectangle 171" width="3.106" height="0.62" transform="translate(231.439 258.244)" fill="#1ed760"/>
        <rect id="Rectangle_172" data-name="Rectangle 172" width="3.106" height="0.62" transform="translate(231.439 293.879)" fill="#1ed760"/>
        <rect id="Rectangle_173" data-name="Rectangle 173" width="3.106" height="0.62" transform="translate(231.439 300.219)" fill="#1ed760"/>
        <path id="Path_148" data-name="Path 148" d="M624.228,121.914v1.239h.887v2.479h-.887v1.239h2.218v-4.958Z" transform="translate(-391.902 140.208)" fill="#1ed760"/>
        <path id="Path_149" data-name="Path 149" d="M624.228,160.494v1.239h.887v2.479h-.887v1.24h2.218v-4.958Z" transform="translate(-391.902 116.003)" fill="#1ed760"/>
        <path id="Path_150" data-name="Path 150" d="M624.228,239.2v1.239h.887v2.479h-.887v1.239h2.218V239.2Z" transform="translate(-391.902 66.625)" fill="#1ed760"/>
        <rect id="Rectangle_174" data-name="Rectangle 174" width="2.218" height="4.958" transform="translate(257.615 291.448)" fill="#1ed760"/>
        <rect id="Rectangle_175" data-name="Rectangle 175" width="2.218" height="4.958" transform="translate(257.615 298.923)" fill="#1ed760"/>
        <rect id="Rectangle_176" data-name="Rectangle 176" width="3.106" height="0.62" transform="translate(256.727 307.137)" fill="#1ed760"/>
        <rect id="Rectangle_177" data-name="Rectangle 177" width="3.106" height="0.62" transform="translate(256.727 342.208)" fill="#1ed760"/>
        <rect id="Rectangle_178" data-name="Rectangle 178" width="3.106" height="0.62" transform="translate(256.727 349.025)" fill="#1ed760"/>
        <path id="Path_151" data-name="Path 151" d="M712.191,256.173v1.239h.887v2.479h-.887v1.24h2.218v-4.958Z" transform="translate(-454.576 55.975)" fill="#1ed760"/>
        <path id="Path_152" data-name="Path 152" d="M712.191,294.753v1.24h.887v2.479h-.887v1.24h2.218v-4.958Z" transform="translate(-454.576 31.77)" fill="#1ed760"/>
        <path id="Path_153" data-name="Path 153" d="M712.191,373.457V374.7h.887v2.479h-.887v1.239h2.218v-4.958Z" transform="translate(-454.576 -18.234)" fill="#1ed760"/>
      </g>
    </g>
  </g>
</svg>
