<svg xmlns="http://www.w3.org/2000/svg" width="843.537" height="301.467" viewBox="0 0 843.537 301.467">
  <g id="Group_32" data-name="Group 32" transform="translate(-580 -286.517)">
    <path id="Path_297" data-name="Path 297" d="M825.659,666.4a17.936,17.936,0,0,1-.122,2.065C820.4,711.094,656.84,745.3,455.83,745.3S91.26,711.094,86.122,668.467A17.942,17.942,0,0,1,86,666.4c0-.2,0-.4.014-.594,0-.107.007-.2.007-.312a.642.642,0,0,0,.007-.117c.029-.438.072-.857.13-1.286,2.346-17.427,31.191-33.441,78.24-46.27,38.48-10.491,89.14-18.859,147.45-24.119,44.25-3.994,92.9-6.205,143.982-6.205,41.1,0,80.629,1.432,117.554,4.062h.014q11.591.833,22.837,1.822c51.323,4.5,96.868,11.387,133.563,20.008,22.571,5.309,41.8,11.28,56.978,17.748h.007c23.355,9.965,37.127,21.138,38.717,32.954.057.429.1.848.129,1.286a.65.65,0,0,0,.007.117c0,.107.007.2.007.312C825.659,666,825.659,666.207,825.659,666.4Z" transform="translate(519.657 -157.32)" fill="#fff"/>
    <ellipse id="Ellipse_8" data-name="Ellipse 8" cx="160.841" cy="23.1" rx="160.841" ry="23.1" transform="translate(802.44 538.872)" opacity="0.1"/>
    <path id="Path_298" data-name="Path 298" d="M1052.29,631.3c-5.621,1.607-11.952,3.1-18.9,4.461-28.6,5.63-67.623,9.088-110.59,9.088-48,0-91.03-4.315-120.185-11.144-24.2-5.669-38.847-13.043-38.847-21.138,0-7.111,11.338-13.7,30.558-19.024,69.483,4.5,131.144,11.387,180.823,20.008C1005.709,618.856,1031.747,624.827,1052.29,631.3Z" transform="translate(371.246 -157.477)" opacity="0.1"/>
    <path id="Path_299" data-name="Path 299" d="M607.021,620.54c0,14.738-92.462,26.691-206.51,26.691S194,635.278,194,620.54a4.258,4.258,0,0,1,.935-2.552c52.1-10.491,120.682-18.859,199.624-24.119q2.966-.015,5.952-.01C514.559,593.859,607.021,605.8,607.021,620.54Z" transform="translate(386 -157.485)" opacity="0.1"/>
    <path id="Path_301" data-name="Path 301" d="M831.617,659.3c0,47.475-66.175,32.791-147.2,32.791S538.2,706.776,538.2,659.3s66.166-57.8,147.191-57.8S831.617,611.825,831.617,659.3Z" transform="translate(377.087 -157.683)" opacity="0.1"/>
    <path id="Path_302" data-name="Path 302" d="M831.617,647.3c0,47.475-66.175,32.791-147.2,32.791S538.2,694.776,538.2,647.3s66.166-57.8,147.191-57.8S831.617,599.825,831.617,647.3Z" transform="translate(377.087 -157.372)" fill="#3f3d56"/>
    <path id="Path_303" data-name="Path 303" d="M825.127,561.325l3.345,13.8a.864.864,0,0,1-.017.466L813.282,623a.862.862,0,0,1-1.677-.165l-2.1-18.47a.863.863,0,0,1,.037-.364l13.926-42.74a.862.862,0,0,1,1.657.064Z" transform="translate(370.062 -156.625)" fill="#2f2e41"/>
    <path id="Path_304" data-name="Path 304" d="M737.922,412.038l3.089,11.837-13.382,43.233-3.088-13.381Z" transform="translate(456.035 -6.173)" fill="#f2f2f2"/>
    <path id="Path_305" data-name="Path 305" d="M755.061,627.955c.515,1.544,53.526-.515,54.041-1.029a11.171,11.171,0,0,0,1.132-2.059c.484-1.029.926-2.059.926-2.059L809.1,606.143l-52.5-1.864s-1.312,14.123-1.58,20.587a15.437,15.437,0,0,0,.036,3.089Z" transform="translate(371.474 -157.755)" fill="#2f2e41"/>
    <path id="Path_306" data-name="Path 306" d="M717.085,458.005l1.029,14.411h-23.16V458.005Z" transform="translate(456.801 -7.363)" opacity="0.1"/>
    <path id="Path_307" data-name="Path 307" d="M686.672,462.759l.138-.027-.653,6.2H673.291v-6.176Z" transform="translate(457.362 -7.485)" opacity="0.1"/>
    <path id="Path_308" data-name="Path 308" d="M755.061,628.5c.515,1.544,53.526-.515,54.041-1.029a11.175,11.175,0,0,0,1.132-2.059H755.025a15.438,15.438,0,0,0,.036,3.088Z" transform="translate(371.474 -158.302)" opacity="0.1"/>
    <path id="Path_309" data-name="Path 309" d="M670.713,572.666h14.411l35.512-13.9s25.219-10.293,23.16,9.264-5.661,45.806-5.661,45.806-11.323-5.147-17.5-3.6-2.059-31.4-2.059-31.4-50.438,24.19-55.07,21.1-5.661-24.7-5.661-24.7Z" transform="translate(373.989 -156.506)" fill="#2f2e41"/>
    <path id="Path_310" data-name="Path 310" d="M670.713,572.666h14.411l35.512-13.9s25.219-10.293,23.16,9.264-5.661,45.806-5.661,45.806-11.323-5.147-17.5-3.6-2.059-31.4-2.059-31.4-50.438,24.19-55.07,21.1-5.661-24.7-5.661-24.7Z" transform="translate(373.989 -156.506)" opacity="0.1"/>
    <path id="Path_311" data-name="Path 311" d="M694.019,526.777l17.44,25.057L752.119,585.8s37.571,8.749,32.424,14.926S748,594.552,748,594.552s-46.835-33.968-48.379-36.542-18.528-26.763-18.528-26.763Z" transform="translate(373.387 -155.748)" fill="#a0616a"/>
    <path id="Path_312" data-name="Path 312" d="M694.019,526.777l17.44,25.057L752.119,585.8s37.571,8.749,32.424,14.926S748,594.552,748,594.552s-46.835-33.968-48.379-36.542-18.528-26.763-18.528-26.763Z" transform="translate(373.387 -155.748)" opacity="0.1"/>
    <circle id="Ellipse_9" data-name="Ellipse 9" cx="23.16" cy="23.16" r="23.16" transform="translate(1041.614 297.269)" fill="#a0616a"/>
    <path id="Path_313" data-name="Path 313" d="M689.139,495.437s-7.72,13.381-9.264,20.587-23.16-14.411-23.16-14.411l-2.831-7.463s20.33-9.521,18.786-17.242S689.139,495.437,689.139,495.437Z" transform="translate(374.092 -154.42)" fill="#a0616a"/>
    <path id="Path_314" data-name="Path 314" d="M683.285,506.005l11.323,22.131s-2.573,10.808-6.691,11.838S666.3,526.592,666.3,526.592Z" transform="translate(373.77 -155.21)" fill="#d0cde1"/>
    <path id="Path_315" data-name="Path 315" d="M693.646,537.178l21.1,27.792,50.438,37.571s36.542,7.72,28.307,13.381-31.91-5.147-31.91-5.147-50.953-27.278-61.761-38.6-30.88-30.366-30.88-30.366Z" transform="translate(373.702 -156.017)" fill="#a0616a"/>
    <path id="Path_316" data-name="Path 316" d="M664.026,581.474l6.176,9.779,36.859-11.6a28.981,28.981,0,0,1,24.129,2.911c6.433,4.053,10.551,10.486,1.287,20.008-18.528,19.043-30.88,8.749-30.88,8.749s-62.276,29.336-72.569,14.926-10.808-21.616-10.808-21.616S657.85,579.93,664.026,581.474Z" transform="translate(375.015 -157.081)" fill="#2f2e41"/>
    <path id="Path_317" data-name="Path 317" d="M743.061,616.309s16.469,10.808-3.088,15.955S706,630.205,706,630.205s-16.984,0-16.984-8.749,5.661-9.779,5.661-9.779l17.5,2.573S733.281,608.588,743.061,616.309Z" transform="translate(373.182 -157.946)" fill="#d0cde1"/>
    <path id="Path_318" data-name="Path 318" d="M709.846,468.1a17.272,17.272,0,0,0,4.853,1.738,4.43,4.43,0,0,0,4.476-1.918,6.023,6.023,0,0,0,.509-2.723c.062-2.826-.142-5.881-1.933-8.069-1.14-1.392-2.8-2.269-3.984-3.628a17.152,17.152,0,0,1-2.014-3.29c-2.295-4.31-5.692-8.451-10.413-9.694a22.586,22.586,0,0,0-6.078-.465l-11.89.168a20.7,20.7,0,0,0-5.72.616c-3.827,1.157-6.614,4.375-9.166,7.453a46.609,46.609,0,0,0-5.257,7.255,25.456,25.456,0,0,0-3.018,12.473,11.667,11.667,0,0,0,.427,3.3,18.324,18.324,0,0,0,1.3,2.849c2.23,4.38,3.554,9.85,1.043,14.075,4.362-1.782,8.678-4.118,11.556-7.85,1.287-1.669,2.3-3.623,4.012-4.848s4.511-1.331,5.612.467a5.028,5.028,0,0,1,.568,2.356,10.8,10.8,0,0,0,.65,3.976,2.979,2.979,0,0,0,3.236,1.847c2.241-.631,2.026-4.07,3.752-5.633,1.311-1.186,3.333-.96,5.017-1.5a7.446,7.446,0,0,0,4.273-4.209c.638-1.43.628-5.172,1.835-5.947C705,465.936,708.444,467.48,709.846,468.1Z" transform="translate(373.928 -153.501)" fill="#2f2e41"/>
    <path id="Path_319" data-name="Path 319" d="M650.985,492.134a6.108,6.108,0,0,1,3.179.008c3.3.887,10.71,3.235,12.3,6.808,2.059,4.632,9.264,11.838,9.264,11.838s9.779,9.779,7.72,16.47-9.779,14.411-9.779,14.411,2.059,31.91-8.235,40.145-14.411,2.573-14.411,10.293-31.91,31.91-38.086,16.984c0,0,3.088-27.792,2.059-37.571C613.98,561.881,615.466,501.75,650.985,492.134Z" transform="translate(375.152 -154.846)" fill="#d0cde1"/>
    <path id="Path_320" data-name="Path 320" d="M668.3,505.441s31.4,23.16,25.734,32.939c0,0-19.043,9.264-23.16,8.749S650.8,528.6,646.687,527.057,640.511,497.721,668.3,505.441Z" transform="translate(374.341 -155.16)" fill="#d0cde1"/>
    <path id="Path_321" data-name="Path 321" d="M578.865,526.712c-4.883,1.649-9.306,5.506-10.306,10.562-.464,2.344-.179,4.78-.569,7.137-.9,5.466-5.2,9.641-9.153,13.519s-8.045,8.383-8.333,13.917c-.316,6.059,4.078,11.735,3.318,17.754-.883,6.993-8.27,11.525-10.1,18.333-1.219,4.546.275,9.443,2.733,13.457,4.684,7.649,12.691,12.842,21.217,15.626s17.607,3.369,26.576,3.463c10.921.114,22.777-.823,30.982-8.031a24.82,24.82,0,0,0,8.24-16.159c.779-8.349-2.705-16.975-.3-25.008,1.513-5.056,5.306-9.673,4.74-14.919-.554-5.13-5.034-8.766-8.108-12.91-2.87-3.869-4.611-8.439-6.318-12.944l-5.84-15.414c-1.148-3.03-2.409-6.217-4.967-8.206-4.789-3.723-12.49-2.992-18.091-2.224C589.393,525.376,583.862,525.025,578.865,526.712Z" transform="translate(376.955 -155.677)" fill="#2f2e41"/>
    <path id="Path_322" data-name="Path 322" d="M581.024,572.857s2.589,8.413-16.826,18.121,1.942,20.062,1.942,20.062l22.651,5.177s23.3-3.236,25.887-7.119,7.119-16.826,5.824-18.768a30.252,30.252,0,0,0-3.236-3.883s-15.532-2.589-14.885-9.708S581.024,572.857,581.024,572.857Z" transform="translate(376.625 -156.922)" fill="#ffb9b9"/>
    <path id="Path_323" data-name="Path 323" d="M581.024,572.857s2.589,8.413-16.826,18.121,1.942,20.062,1.942,20.062l22.651,5.177s23.3-3.236,25.887-7.119,7.119-16.826,5.824-18.768a30.252,30.252,0,0,0-3.236-3.883s-15.532-2.589-14.885-9.708S581.024,572.857,581.024,572.857Z" transform="translate(376.625 -156.922)" opacity="0.1"/>
    <circle id="Ellipse_10" data-name="Ellipse 10" cx="20.709" cy="20.709" r="20.709" transform="translate(949.56 387.784)" fill="#ffb9b9"/>
    <path id="Path_324" data-name="Path 324" d="M591.045,609.459s-24.941-1.824-25.414-19.033c0,0-8.886-1.03-11.475,1.559s-11,4.53-11,11,14.238,25.887,14.238,25.887,7.766,25.887,4.53,30.417-3.883,16.179-3.883,16.179,32.358-2.589,37.536,0,25.887,2.589,27.181,0-1.294-34.947-1.294-34.947,5.825-7.766,4.53-16.826l15.532-18.121S635.7,588.1,626.639,588.1c0,0-12.3-3.236-12.62-1.618S620.168,606.223,591.045,609.459Z" transform="translate(376.959 -157.282)" fill="#ff6584"/>
    <path id="Path_325" data-name="Path 325" d="M532.525,668.341s5.825,9.06,20.709,11,17.474-3.236,16.179-4.53-16.826-7.119-16.826-7.119l-9.06-7.119Z" transform="translate(377.234 -159.213)" fill="#ffb9b9"/>
    <path id="Path_326" data-name="Path 326" d="M640.621,660.574,623.8,670.282s-22-1.294-13.59,5.177,23.945,3.883,23.945,3.883l14.885-7.119Z" transform="translate(375.272 -159.212)" fill="#ffb9b9"/>
    <path id="Path_327" data-name="Path 327" d="M554.953,677.848s-15.532,38.183,3.236,44.007,70.541,4.53,82.19-3.236,14.885-18.121,12.943-21.356-14.885-12.3-23.945-12.943S554.953,677.848,554.953,677.848Z" transform="translate(376.81 -159.66)" fill="#2f2e41"/>
    <path id="Path_328" data-name="Path 328" d="M554.953,677.848s-15.532,38.183,3.236,44.007,70.541,4.53,82.19-3.236,14.885-18.121,12.943-21.356-14.885-12.3-23.945-12.943S554.953,677.848,554.953,677.848Z" transform="translate(376.81 -159.66)" opacity="0.05"/>
    <path id="Path_329" data-name="Path 329" d="M629.031,680.078s54.823-19.846,54.176,4.1-34.947,30.417-34.947,30.417l-10.355,1.294-56.951,1.942s1.941-10.355-2.589-11.649c0,0,14.885-3.883,15.532-4.53s37.536-13.59,40.124-14.238,10.355-5.825,16.179-5.177c0,0,6.472-5.177,13.591-3.883l-20.062,1.294Z" transform="translate(376.047 -159.518)" fill="#2f2e41"/>
    <path id="Path_330" data-name="Path 330" d="M629.031,680.078s54.823-19.846,54.176,4.1-34.947,30.417-34.947,30.417l-10.355,1.294-56.951,1.942s1.941-10.355-2.589-11.649c0,0,14.885-3.883,15.532-4.53s37.536-13.59,40.124-14.238,10.355-5.825,16.179-5.177c0,0,6.472-5.177,13.591-3.883l-20.062,1.294Z" transform="translate(376.047 -159.518)" opacity="0.1"/>
    <path id="Path_331" data-name="Path 331" d="M534.434,532.829l6.912,15.771,42.066-14.885,3.236-8.412-11-1.942-22.118,3.884-9.593,2.588Z" transform="translate(460.958 -9.055)" fill="#2f2e41"/>
    <path id="Path_332" data-name="Path 332" d="M534.434,532.829l6.912,15.771,42.066-14.885,3.236-8.412-11-1.942-22.118,3.884-9.593,2.588Z" transform="translate(460.958 -9.055)" opacity="0.1"/>
    <path id="Path_333" data-name="Path 333" d="M528.228,702.236s12.3,15.532,26.534,19.415,22-1.294,22-1.294l-4.529-18.12L570.3,690.587l-8.413-5.825L545.055,677l-20.062-6.472s-8.413-1.294-8.413,0,7.766,20.709,7.766,20.709Z" transform="translate(377.647 -159.455)" fill="#2f2e41"/>
    <path id="Path_334" data-name="Path 334" d="M543.819,711.728s2.589,18.768,5.825,20.062,12.943-1.294,15.532-2.589,11.388-7.266,11.388-7.266S545.76,710.434,543.819,711.728Z" transform="translate(376.942 -160.534)" fill="#f2f2f2"/>
    <path id="Path_335" data-name="Path 335" d="M518.114,563.223l12.3,1.941-1.295,14.884-17.151-4.165Z" transform="translate(461.54 -10.087)" fill="#ffb9b9"/>
    <path id="Path_336" data-name="Path 336" d="M612.118,717.8s-5.763,6.859.062,10.742l3.883,3.236s12.943,2.589,14.238,3.883,6.472-1.942,6.472-1.942.647-19.415,0-20.709-8.413-2.589-9.06-1.294-8.413,3.236-12.943,1.941Z" transform="translate(375.239 -160.523)" fill="#f2f2f2"/>
    <path id="Path_337" data-name="Path 337" d="M557.505,681.995s-45.3-26.534-52.421-16.826-14.885,23.3,5.825,33.653,85.426,31.711,85.426,31.711,9.708-14.885,9.708-18.768c0,0-34.3-15.532-40.124-16.826S536.8,678.759,533.56,677.465s-7.766-5.177-7.766-5.177Z" transform="translate(378.14 -159.276)" fill="#2f2e41"/>
    <path id="Path_338" data-name="Path 338" d="M545.364,600.117l-2.589,1.942s-5.824,14.885-6.472,23.3-8.413,34.3-7.766,37.536,1.294,5.824,5.177,9.06c0,0,5.177-11.649,14.238-9.708l11-40.124Z" transform="translate(377.338 -157.647)" fill="#ff6584"/>
    <path id="Path_339" data-name="Path 339" d="M638.5,600.117l5.177,5.825s3.236,7.766,3.236,9.708,6.472,30.417,7.119,31.711,3.236,17.474,0,21.356-9.06,6.472-9.06,6.472,3.883-13.59-8.413-14.238l1.294-5.177L626.2,616.943Z" transform="translate(374.809 -157.647)" fill="#ff6584"/>
    <path id="Path_340" data-name="Path 340" d="M547.141,645.64v34.089a8.2,8.2,0,0,0,8.074,8.195l71.29,1.056a8.2,8.2,0,0,0,8.311-7.88l1.311-34.093a8.2,8.2,0,0,0-8.071-8.51l-72.6-1.052a8.2,8.2,0,0,0-8.314,8.195Z" transform="translate(376.856 -158.614)" fill="#3f3d56"/>
    <ellipse id="Ellipse_11" data-name="Ellipse 11" cx="22.292" cy="12.003" rx="22.292" ry="12.003" transform="translate(949.192 383.823)" fill="#2f2e41"/>
    <path id="Path_341" data-name="Path 341" d="M8.85.61A14.9,14.9,0,0,0,.721.539.973.973,0,0,0,.027,1.7a7.932,7.932,0,0,0,.76,1.989,8.3,8.3,0,0,0,3.528,3.37.97.97,0,0,0,.9-.011A8.869,8.869,0,0,0,8.052,4.646,8.853,8.853,0,0,0,9.5,1.827.97.97,0,0,0,8.85.61ZM6.359,4.642H5.1l.223-1.274H4.1L3.882,4.642H2.622l.61-3.462H4.491l-.165.947-.058.306H6.746ZM6.8,2.128H5.54l.168-.947H6.967Z" transform="translate(962.735 501.622)" fill="#1ed760"/>
  </g>
</svg>
