<svg xmlns="http://www.w3.org/2000/svg" width="846.332" height="349.862" viewBox="0 0 846.332 349.862">
  <g id="Group_73" data-name="Group 73" transform="translate(-537 -265)">
    <path id="Path_344" data-name="Path 344" d="M643.457,193.25,693,143.859,643.457,94.468l15.1-15.054,64.647,64.445L658.561,208.3l-15.1-15.054Z" transform="translate(408.267 251.206)" fill="#e6e6e6"/>
    <rect id="Rectangle_214" data-name="Rectangle 214" width="20.139" height="20.139" transform="translate(910.246 375.25)" fill="#e6e6e6"/>
    <rect id="Rectangle_215" data-name="Rectangle 215" width="20.139" height="20.139" transform="translate(991.206 375.25)" fill="#e6e6e6"/>
    <rect id="Rectangle_216" data-name="Rectangle 216" width="20.139" height="20.139" transform="translate(950.726 375.25)" fill="#e6e6e6"/>
    <path id="Path_345" data-name="Path 345" d="M412.536,192.621,362.943,143.23l49.542-49.391-15.1-15.054-64.6,64.445,64.647,64.445Z" transform="translate(470.422 251.331)" fill="#e6e6e6"/>
    <path id="Path_346" data-name="Path 346" d="M643.457,181.292,693,131.9,643.457,82.509l15.1-15.054L723.208,131.9l-64.647,64.445-15.1-15.054Z" transform="translate(408.267 253.598)" fill="#1ed760"/>
    <path id="Path_347" data-name="Path 347" d="M537.595,380.014h20.139V359.875H537.595Zm101.1-20.139H618.555v20.139h20.139Zm-60.619,20.139h20.139V359.875H578.075Z" transform="translate(372.651 9.008)"/>
    <path id="Path_348" data-name="Path 348" d="M412.536,180.662l-49.593-49.391L412.486,81.88l-15.1-15.054-64.6,64.445,64.647,64.445Z" transform="translate(470.422 253.724)" fill="#1ed760"/>
    <path id="Path_349" data-name="Path 349" d="M129.3,399.573l11.274,2.725,15.878-42.188-16.639-4.023Z" transform="translate(511.131 195.853)" fill="#a0616a"/>
    <path id="Path_350" data-name="Path 350" d="M193.632,652.15l3.462-14.32,22.058,5.333a14.425,14.425,0,0,1,10.619,17.391l-.076.315Z" transform="translate(441.466 -46.6)" fill="#2f2e41"/>
    <path id="Path_351" data-name="Path 351" d="M191.7,408.861h11.6l5.517-44.738H191.694Z" transform="translate(498.649 194.246)" fill="#a0616a"/>
    <path id="Path_352" data-name="Path 352" d="M259.183,648.129h22.694a14.408,14.408,0,0,1,14.409,14.408v.324l-37.1,0Z" transform="translate(428.351 -48.661)" fill="#2f2e41"/>
    <path id="Path_353" data-name="Path 353" d="M247.675,597.1l1.907-69.6-2.569-28.222L242,521l-21.9,71.422-18.881-4.969,21.867-77.01-4.749-49.395,13.645-8.771.184.033,46.619,8.593L267.522,595.119Z" transform="translate(439.948 -9.478)" fill="#2f2e41"/>
    <path id="Path_354" data-name="Path 354" d="M270.288,441.6c-3.754,0-8.145-1.209-13.032-4.659-15.64-11.038-34.287.836-34.474.956l-.757.492.027-.9c.019-.643,1.892-64.564,1.892-85.133,0-21.251,13.865-36.767,18.114-41.016,4.171-4.171,7.68-4.079,12.123-3.964.765.019,1.563.041,2.4.041,5.806,0,11.45,5.578,11.687,5.815l.113.114.021.159,16.11,121.3-.123.156C284.316,435.045,279.026,441.6,270.288,441.6Z" transform="translate(435.785 19.52)" fill="#ccc"/>
    <circle id="Ellipse_13" data-name="Ellipse 13" cx="23.237" cy="23.237" r="23.237" transform="translate(663.298 305.778) rotate(-61.337)" fill="#a0616a"/>
    <path id="Path_355" data-name="Path 355" d="M309.337,488.024a9.514,9.514,0,0,1-.552-14.577l-13.2-31.126,17.278,3.18,9.882,29.07a9.565,9.565,0,0,1-13.412,13.453Z" transform="translate(421.068 -7.486)" fill="#a0616a"/>
    <path id="Path_356" data-name="Path 356" d="M299.525,445.107l-23.844-48.642-10.455-36.61.008-31.8c.024-.126,2.481-12.5,11.591-11.641,8.261.8,12.71,4.839,14.876,13.507,1.841,7.363-.677,29.206-.92,31.267,1.6,3.79,25.579,60.927,21.609,67.807a1.747,1.747,0,0,1-.628.65l4.249,8.971Z" transform="translate(427.142 17.713)" fill="#ccc"/>
    <path id="Path_357" data-name="Path 357" d="M258.8,270.822c2.785.362,4.887-2.488,5.861-5.122s1.717-5.7,4.139-7.125c3.309-1.944,7.542.394,11.326-.247,4.273-.724,7.051-5.253,7.269-9.581s-1.5-8.491-3.195-12.482l-.59,4.96a9.835,9.835,0,0,0-4.3-8.6l.761,7.277a7.724,7.724,0,0,0-8.886-6.391l.12,4.336c-4.935-.587-9.914-1.175-14.863-.727s-9.934,2.013-13.686,5.273c-5.612,4.876-7.661,12.905-6.973,20.308s3.744,14.356,6.928,21.074c.8,1.69,1.91,3.6,3.768,3.813a3.8,3.8,0,0,0,3.716-2.8,10.151,10.151,0,0,0-.045-4.987c-.47-2.5-1.061-5.045-.62-7.546s2.24-4.971,4.76-5.277,5.1,2.574,3.888,4.806Z" transform="translate(433.057 34.466)" fill="#2f2e41"/>
    <path id="Path_358" data-name="Path 358" d="M982.576,485.539a8.044,8.044,0,0,1,1.887-12.189l-5.947-27.96,13.831,5.419,3.527,25.721a8.088,8.088,0,0,1-13.3,9.01Z" transform="translate(284.438 -8.1)" fill="#ffb8b8"/>
    <path id="Path_359" data-name="Path 359" d="M975.431,445.764l-.074-.275c-7.477-27.655-15.206-56.242-24.641-87.368l-.062-.2.208-.121c5.259-3.069,13.164-2.865,18.387.475a13.719,13.719,0,0,1,5.954,14.552l6.882,35.883c2.8,11.729,5.694,23.87,8.461,35.842l.078.339-.429.027c-5.039.32-10.245.652-14.416.835Z" transform="translate(290.013 9.859)" fill="#ccc"/>
    <path id="Path_360" data-name="Path 360" d="M827.574,412.284h-9.807L813.1,374.457h14.474Z" transform="translate(374.328 192.178)" fill="#ffb8b8"/>
    <path id="Path_361" data-name="Path 361" d="M897.412,663.078H865.79v-.4A12.322,12.322,0,0,1,878.1,650.369h19.314Z" transform="translate(306.991 -49.109)" fill="#2f2e41"/>
    <path id="Path_362" data-name="Path 362" d="M940.4,402.617l-9.345,2.977L915.121,370.97l13.792-4.395Z" transform="translate(353.917 193.755)" fill="#ffb8b8"/>
    <path id="Path_363" data-name="Path 363" d="M986.465,661.2l-.121-.381a12.323,12.323,0,0,1,7.991-15.464l18.4-5.864,3.858,12.108Z" transform="translate(282.989 -46.933)" fill="#2f2e41"/>
    <circle id="Ellipse_14" data-name="Ellipse 14" cx="19.647" cy="19.647" r="19.647" transform="translate(1225.03 303.343)" fill="#ffb8b8"/>
    <path id="Path_364" data-name="Path 364" d="M958.392,292.3c.112-7.924-3.2-15.773-8.333-19.718a13.318,13.318,0,0,0-16.9.3c-5.048,4.126-8.209,12.088-7.942,20.006C936.525,292.919,947.837,292.951,958.392,292.3Z" transform="translate(295.106 27.049)" fill="#2f2e41"/>
    <path id="Path_365" data-name="Path 365" d="M902.556,592.206l-.393-.038c-8.532-.837-17.354-1.7-25.692-1.8l-.453-.005.062-.449c1.975-14.307,2.813-29.181,3.623-43.566.8-14.2,1.626-28.89,3.552-42.839.815-3.735,1.609-7.426,2.4-11.1,6.548-30.432,12.733-59.177,25.5-87.63l.121-.269.292.035a70.2,70.2,0,0,1,32.41,12.306l.173.125-.008.214c-.172,4.42-.35,8.988-.087,13.15a44.634,44.634,0,0,1,6.363,39.423c3.513,11.739,7.144,23.874,10.849,35.845,9,24.669,18.309,50.2,27.854,76.075l.157.424-.44.1a155.675,155.675,0,0,1-20.94,3.92l-.264.024-.125-.234a570.227,570.227,0,0,1-43.267-104.036c-2.385,7.273-5.821,13.838-9.149,20.2A151.207,151.207,0,0,0,906.706,520c-1.473,12.1-1.864,25.2-2.242,37.874-.357,11.983-.694,23.3-1.865,33.943Z" transform="translate(304.945 0.08)" fill="#2f2e41"/>
    <path id="Path_366" data-name="Path 366" d="M946.822,273.581c8.516-1.835,17.936-.089,24.624,5.657s10.084,15.686,7.337,24.211-12.076,14.523-20.51,12.322c2.416-6.809-.3-15.17-6.209-19.092C945.059,292.027,943.131,280.922,946.822,273.581Z" transform="translate(291.147 26.412)" fill="#2f2e41"/>
    <path id="Path_367" data-name="Path 367" d="M952.175,403.455l-.312-.142c-10.864-4.957-21.517-8.76-31.5-12.23l-.306-.066v-.887l.2.069.136-.3c.136-.3.229-.507.308-.643h0c.832-1.7,1.494-3.334,2.133-4.919.66-1.635,1.341-3.324,2.222-5.111a15.483,15.483,0,0,1-3.421-16.662,17.488,17.488,0,0,1,13.734-9.971c2.164-5.959,6.987-18.479,6.987-18.479s10.142-.279,14.22-.8l.069-.009.067.015c8.9,1.951,16.338,10.377,18.077,20.489,1.468,8.535-.761,18.3-6.277,27.49a118.411,118.411,0,0,1-9.367,12.87c-2.485,3.107-4.831,6.041-6.78,9Z" transform="translate(296.134 14.323)" fill="#ccc"/>
    <path id="Path_368" data-name="Path 368" d="M984.292,290.493Z" transform="translate(283.283 22.889)" fill="#2f2e41"/>
    <path id="Path_369" data-name="Path 369" d="M982.283,282.453a11.778,11.778,0,1,1,13.507-11.159C995.538,277.317,989.894,283.589,982.283,282.453Z" transform="translate(285.692 29.184)" fill="#2f2e41"/>
    <path id="Path_370" data-name="Path 370" d="M980.518,277.864a11.688,11.688,0,0,1-2.859-22.36,11.742,11.742,0,0,0,.46,23.16,11.365,11.365,0,0,0,6.537-.914,11.6,11.6,0,0,1-4.137.114Z" transform="translate(286.525 29.889)" fill="#2f2e41"/>
    <path id="Path_371" data-name="Path 371" d="M838.8,411.131a8.044,8.044,0,0,1,12.122-2.282l24.381-14.923-.5,14.846-23.076,11.9a8.088,8.088,0,0,1-12.926-9.536Z" transform="translate(312.602 2.196)" fill="#ffb8b8"/>
    <path id="Path_372" data-name="Path 372" d="M864.128,391.332l.234-.161c23.583-16.264,47.962-33.076,74.166-52.343l.172-.126.184.156c4.646,3.936,7.087,11.458,5.679,17.495a13.719,13.719,0,0,1-11.736,10.463l-31.54,18.444c-10.127,6.546-20.609,13.322-30.975,19.92l-.294.187-.169-.395c-1.981-4.644-4.028-9.443-5.59-13.314Z" transform="translate(307.323 13.245)" fill="#ccc"/>
    <path id="Path_373" data-name="Path 373" d="M376.576,666.973H71.8a.8.8,0,1,1,0-1.6H376.576a.8.8,0,1,1,0,1.6Z" transform="translate(466 -52.111)" fill="#3f3d56"/>
    <path id="Path_374" data-name="Path 374" d="M1051.576,666.973H746.8a.8.8,0,0,1,0-1.6h304.776a.8.8,0,1,1,0,1.6Z" transform="translate(330.957 -52.111)" fill="#3f3d56"/>
  </g>
</svg>
