<svg xmlns="http://www.w3.org/2000/svg" width="794.258" height="573.136" viewBox="0 0 794.258 573.136">
  <g id="Group_28" data-name="Group 28" transform="translate(-129.742 -304.265)">
    <g id="Group_18" data-name="Group 18" transform="translate(40.649 63.993)">
      <rect id="Rectangle_2" data-name="Rectangle 2" width="9.991" height="15.986" transform="translate(93.089 244.268)" fill="#1ed760"/>
      <rect id="Rectangle_3" data-name="Rectangle 3" width="9.991" height="15.986" transform="translate(127.059 240.272)" fill="#1ed760"/>
      <rect id="Rectangle_4" data-name="Rectangle 4" width="9.991" height="15.986" transform="translate(145.042 240.272)" fill="#1ed760"/>
      <rect id="Rectangle_5" data-name="Rectangle 5" width="9.991" height="15.986" transform="translate(145.042 288.23)" fill="#1ed760"/>
      <rect id="Rectangle_6" data-name="Rectangle 6" width="9.991" height="15.986" transform="translate(165.026 264.25)" fill="#1ed760"/>
      <rect id="Rectangle_7" data-name="Rectangle 7" width="9.991" height="15.986" transform="translate(165.026 290.228)" fill="#1ed760"/>
      <rect id="Rectangle_8" data-name="Rectangle 8" width="9.991" height="15.986" transform="translate(145.042 334.035)" fill="#1ed760"/>
      <rect id="Rectangle_9" data-name="Rectangle 9" width="9.991" height="15.986" transform="translate(165.026 358.414)" fill="#1ed760"/>
      <rect id="Rectangle_10" data-name="Rectangle 10" width="9.991" height="15.986" transform="translate(145.042 450.302)" fill="#1ed760"/>
      <rect id="Rectangle_11" data-name="Rectangle 11" width="9.991" height="15.986" transform="translate(127.059 358.414)" fill="#1ed760"/>
      <rect id="Rectangle_12" data-name="Rectangle 12" width="9.991" height="15.986" transform="translate(93.089 270.245)" fill="#1ed760"/>
      <rect id="Rectangle_13" data-name="Rectangle 13" width="9.991" height="15.986" transform="translate(93.089 502.81)" fill="#1ed760"/>
      <rect id="Rectangle_14" data-name="Rectangle 14" width="9.991" height="15.986" transform="translate(93.089 551.567)" fill="#1ed760"/>
      <rect id="Rectangle_15" data-name="Rectangle 15" width="9.991" height="15.986" transform="translate(93.089 571.519)" fill="#1ed760"/>
      <rect id="Rectangle_16" data-name="Rectangle 16" width="13.988" height="1.998" transform="translate(89.093 298.221)" fill="#1ed760"/>
      <rect id="Rectangle_17" data-name="Rectangle 17" width="13.988" height="1.998" transform="translate(143.044 322.199)" fill="#1ed760"/>
      <rect id="Rectangle_18" data-name="Rectangle 18" width="13.988" height="1.998" transform="translate(89.093 415.033)" fill="#1ed760"/>
      <rect id="Rectangle_19" data-name="Rectangle 19" width="13.988" height="1.998" transform="translate(89.093 435.703)" fill="#1ed760"/>
      <rect id="Rectangle_20" data-name="Rectangle 20" width="13.988" height="1.998" transform="translate(143.044 555.969)" fill="#1ed760"/>
      <rect id="Rectangle_21" data-name="Rectangle 21" width="13.988" height="1.998" transform="translate(127.059 597.497)" fill="#1ed760"/>
      <path id="Path_1" data-name="Path 1" d="M158.179,121.914v4h4V133.9h-4v4h9.991V121.914Z" transform="translate(-65.09 189.619)" fill="#1ed760"/>
      <path id="Path_2" data-name="Path 2" d="M184.414,100.309v4h4V112.3h-4v4h9.991V100.309Z" transform="translate(-57.355 187.921)" fill="#1ed760"/>
      <path id="Path_3" data-name="Path 3" d="M213.735,120.37v4h4v7.993h-4v4h9.991V120.37Z" transform="translate(-48.709 189.286)" fill="#1ed760"/>
      <path id="Path_4" data-name="Path 4" d="M213.735,180.556v4h4v7.993h-4v4h9.991V180.556Z" transform="translate(-48.709 202.237)" fill="#1ed760"/>
      <path id="Path_5" data-name="Path 5" d="M213.735,200.617v4h4v7.993h-4v4h9.991V200.617Z" transform="translate(-48.709 206.554)" fill="#1ed760"/>
      <path id="Path_6" data-name="Path 6" d="M213.735,138.889v4h4v7.993h-4v4h9.991V138.889Z" transform="translate(-48.709 193.271)" fill="#1ed760"/>
      <path id="Path_7" data-name="Path 7" d="M198.3,81.79v4h4v7.992h-4v4h9.992V81.79Z" transform="translate(-53.26 182.46)" fill="#1ed760"/>
      <rect id="Rectangle_22" data-name="Rectangle 22" width="9.991" height="15.986" transform="translate(145.042 382.793)" fill="#1ed760"/>
      <rect id="Rectangle_23" data-name="Rectangle 23" width="9.991" height="15.986" transform="translate(145.042 427.8)" fill="#1ed760"/>
      <path id="Path_8" data-name="Path 8" d="M198.3,199.074v4h4v7.993h-4v4h9.992V199.074Z" transform="translate(-53.26 206.222)" fill="#1ed760"/>
      <path id="Path_9" data-name="Path 9" d="M184.414,120.37v4h4v7.993h-4v4h9.991V120.37Z" transform="translate(-57.355 189.286)" fill="#1ed760"/>
      <path id="Path_10" data-name="Path 10" d="M184.414,140.432v4h4v7.992h-4v4h9.991V140.432Z" transform="translate(-57.355 193.603)" fill="#1ed760"/>
      <rect id="Rectangle_24" data-name="Rectangle 24" width="9.991" height="15.986" transform="translate(127.059 407.171)" fill="#1ed760"/>
      <path id="Path_11" data-name="Path 11" d="M184.414,180.556v4h4v7.993h-4v4h9.991V180.556Z" transform="translate(-57.355 202.237)" fill="#1ed760"/>
      <rect id="Rectangle_25" data-name="Rectangle 25" width="9.991" height="15.986" transform="translate(127.059 455.929)" fill="#1ed760"/>
      <path id="Path_12" data-name="Path 12" d="M184.414,220.679v4h4v7.993h-4v4h9.991V220.679Z" transform="translate(-57.355 210.871)" fill="#1ed760"/>
      <rect id="Rectangle_26" data-name="Rectangle 26" width="9.991" height="15.986" transform="translate(127.059 504.685)" fill="#1ed760"/>
      <rect id="Rectangle_27" data-name="Rectangle 27" width="9.991" height="15.986" transform="translate(145.042 500.935)" fill="#1ed760"/>
      <path id="Path_13" data-name="Path 13" d="M184.414,260.8v4h4v7.993h-4v4h9.991V260.8Z" transform="translate(-57.355 219.504)" fill="#1ed760"/>
      <path id="Path_14" data-name="Path 14" d="M213.735,260.8v4h4v7.993h-4v4h9.991V260.8Z" transform="translate(-48.709 219.504)" fill="#1ed760"/>
      <rect id="Rectangle_28" data-name="Rectangle 28" width="9.991" height="15.986" transform="translate(282.443 264.25)" fill="#1ed760"/>
      <rect id="Rectangle_29" data-name="Rectangle 29" width="9.991" height="15.986" transform="translate(282.443 290.228)" fill="#1ed760"/>
      <rect id="Rectangle_30" data-name="Rectangle 30" width="9.991" height="15.986" transform="translate(282.443 358.414)" fill="#1ed760"/>
      <path id="Path_15" data-name="Path 15" d="M292.438,120.37v4h4v7.993h-4v4h9.991V120.37Z" transform="translate(-9.995 189.286)" fill="#1ed760"/>
      <path id="Path_16" data-name="Path 16" d="M292.438,180.556v4h4v7.993h-4v4h9.991V180.556Z" transform="translate(-9.995 202.237)" fill="#1ed760"/>
      <path id="Path_17" data-name="Path 17" d="M292.438,200.617v4h4v7.993h-4v4h9.991V200.617Z" transform="translate(-9.995 206.554)" fill="#1ed760"/>
      <path id="Path_18" data-name="Path 18" d="M292.438,138.889v4h4v7.993h-4v4h9.991V138.889Z" transform="translate(-9.995 193.271)" fill="#1ed760"/>
      <path id="Path_19" data-name="Path 19" d="M292.438,260.8v4h4v7.993h-4v4h9.991V260.8Z" transform="translate(-9.995 219.504)" fill="#1ed760"/>
      <rect id="Rectangle_31" data-name="Rectangle 31" width="9.991" height="15.986" transform="translate(127.059 553.443)" fill="#1ed760"/>
      <rect id="Rectangle_32" data-name="Rectangle 32" width="9.991" height="15.986" transform="translate(145.042 525.314)" fill="#1ed760"/>
      <rect id="Rectangle_33" data-name="Rectangle 33" width="9.991" height="15.986" transform="translate(127.059 615.481)" fill="#1ed760"/>
      <rect id="Rectangle_34" data-name="Rectangle 34" width="9.991" height="15.986" transform="translate(145.042 572.196)" fill="#1ed760"/>
      <path id="Path_20" data-name="Path 20" d="M184.414,300.926v4h4v7.993h-4v4h9.991V300.926Z" transform="translate(-57.355 228.138)" fill="#1ed760"/>
      <path id="Path_21" data-name="Path 21" d="M184.414,395.062v4h4v7.993h-4v4h9.991V395.062Z" transform="translate(-57.355 248.394)" fill="#1ed760"/>
      <rect id="Rectangle_35" data-name="Rectangle 35" width="9.991" height="15.986" transform="translate(249.856 240.272)" fill="#1ed760"/>
      <rect id="Rectangle_36" data-name="Rectangle 36" width="9.991" height="15.986" transform="translate(249.856 358.414)" fill="#1ed760"/>
      <rect id="Rectangle_37" data-name="Rectangle 37" width="13.988" height="1.998" transform="translate(249.928 597.497)" fill="#1ed760"/>
      <path id="Path_22" data-name="Path 22" d="M269.29,100.309v4h4V112.3h-4v4h9.991V100.309Z" transform="translate(-19.434 187.921)" fill="#1ed760"/>
      <path id="Path_23" data-name="Path 23" d="M269.29,120.37v4h4v7.993h-4v4h9.991V120.37Z" transform="translate(-19.434 189.286)" fill="#1ed760"/>
      <path id="Path_24" data-name="Path 24" d="M269.29,140.432v4h4v7.992h-4v4h9.991V140.432Z" transform="translate(-19.434 193.603)" fill="#1ed760"/>
      <rect id="Rectangle_38" data-name="Rectangle 38" width="9.991" height="15.986" transform="translate(249.856 407.171)" fill="#1ed760"/>
      <path id="Path_25" data-name="Path 25" d="M269.29,180.556v4h4v7.993h-4v4h9.991V180.556Z" transform="translate(-19.434 202.237)" fill="#1ed760"/>
      <rect id="Rectangle_39" data-name="Rectangle 39" width="9.991" height="15.986" transform="translate(249.856 455.929)" fill="#1ed760"/>
      <path id="Path_26" data-name="Path 26" d="M269.29,220.679v4h4v7.993h-4v4h9.991V220.679Z" transform="translate(-19.434 210.871)" fill="#1ed760"/>
      <rect id="Rectangle_40" data-name="Rectangle 40" width="9.991" height="15.986" transform="translate(249.856 504.685)" fill="#1ed760"/>
      <path id="Path_27" data-name="Path 27" d="M269.29,260.8v4h4v7.993h-4v4h9.991V260.8Z" transform="translate(-19.434 219.504)" fill="#1ed760"/>
      <rect id="Rectangle_41" data-name="Rectangle 41" width="9.991" height="15.986" transform="translate(249.856 553.443)" fill="#1ed760"/>
      <rect id="Rectangle_42" data-name="Rectangle 42" width="9.991" height="15.986" transform="translate(249.856 615.481)" fill="#1ed760"/>
      <path id="Path_28" data-name="Path 28" d="M269.29,300.926v4h4v7.993h-4v4h9.991V300.926Z" transform="translate(-19.434 228.138)" fill="#1ed760"/>
      <path id="Path_29" data-name="Path 29" d="M269.29,395.062v4h4v7.993h-4v4h9.991V395.062Z" transform="translate(-19.434 248.394)" fill="#1ed760"/>
      <rect id="Rectangle_43" data-name="Rectangle 43" width="9.991" height="15.986" transform="translate(301.996 240.272)" fill="#1ed760"/>
      <rect id="Rectangle_44" data-name="Rectangle 44" width="9.991" height="15.986" transform="translate(301.996 358.414)" fill="#1ed760"/>
      <rect id="Rectangle_45" data-name="Rectangle 45" width="13.988" height="1.998" transform="translate(302.091 597.497)" fill="#1ed760"/>
      <path id="Path_30" data-name="Path 30" d="M306.327,100.309v4h4V112.3h-4v4h9.991V100.309Z" transform="translate(-4.331 187.921)" fill="#1ed760"/>
      <path id="Path_31" data-name="Path 31" d="M306.327,120.37v4h4v7.993h-4v4h9.991V120.37Z" transform="translate(-4.331 189.286)" fill="#1ed760"/>
      <path id="Path_32" data-name="Path 32" d="M306.327,140.432v4h4v7.992h-4v4h9.991V140.432Z" transform="translate(-4.331 193.603)" fill="#1ed760"/>
      <rect id="Rectangle_46" data-name="Rectangle 46" width="9.991" height="15.986" transform="translate(301.996 407.171)" fill="#1ed760"/>
      <path id="Path_33" data-name="Path 33" d="M306.327,180.556v4h4v7.993h-4v4h9.991V180.556Z" transform="translate(-4.331 202.237)" fill="#1ed760"/>
      <rect id="Rectangle_47" data-name="Rectangle 47" width="9.991" height="15.986" transform="translate(301.996 455.929)" fill="#1ed760"/>
      <path id="Path_34" data-name="Path 34" d="M306.327,220.679v4h4v7.993h-4v4h9.991V220.679Z" transform="translate(-4.331 210.871)" fill="#1ed760"/>
      <rect id="Rectangle_48" data-name="Rectangle 48" width="9.991" height="15.986" transform="translate(301.996 504.685)" fill="#1ed760"/>
      <path id="Path_35" data-name="Path 35" d="M306.327,260.8v4h4v7.993h-4v4h9.991V260.8Z" transform="translate(-4.331 219.504)" fill="#1ed760"/>
      <rect id="Rectangle_49" data-name="Rectangle 49" width="9.991" height="15.986" transform="translate(301.996 553.443)" fill="#1ed760"/>
      <rect id="Rectangle_50" data-name="Rectangle 50" width="9.991" height="15.986" transform="translate(301.996 615.481)" fill="#1ed760"/>
      <path id="Path_36" data-name="Path 36" d="M306.327,300.926v4h4v7.993h-4v4h9.991V300.926Z" transform="translate(-4.331 228.138)" fill="#1ed760"/>
      <path id="Path_37" data-name="Path 37" d="M306.327,395.062v4h4v7.993h-4v4h9.991V395.062Z" transform="translate(-4.331 248.394)" fill="#1ed760"/>
      <path id="Path_38" data-name="Path 38" d="M198.3,373.457v4h4v7.993h-4v4h9.992V373.457Z" transform="translate(-53.26 242.024)" fill="#1ed760"/>
      <path id="Path_39" data-name="Path 39" d="M198.3,393.519v4h4v7.993h-4v4h9.992V393.519Z" transform="translate(-53.26 247.939)" fill="#1ed760"/>
      <path id="Path_40" data-name="Path 40" d="M158.179,160.494v4h4v7.993h-4v4h9.991V160.494Z" transform="translate(-65.09 197.92)" fill="#1ed760"/>
      <path id="Path_41" data-name="Path 41" d="M158.179,239.2v4h4v7.993h-4v4h9.991V239.2Z" transform="translate(-65.09 214.856)" fill="#1ed760"/>
      <path id="Path_42" data-name="Path 42" d="M158.179,259.259v4h4v7.993h-4v4h9.991V259.259Z" transform="translate(-65.09 219.172)" fill="#1ed760"/>
      <path id="Path_43" data-name="Path 43" d="M158.179,299.383v4h4v7.993h-4v4h9.991V299.383Z" transform="translate(-65.09 227.806)" fill="#1ed760"/>
      <path id="Path_44" data-name="Path 44" d="M158.179,356.481v4h4v7.993h-4v4h9.991V356.481Z" transform="translate(-65.09 237.018)" fill="#1ed760"/>
      <path id="Path_45" data-name="Path 45" d="M158.179,373.457v4h4v7.993h-4v4h9.991V373.457Z" transform="translate(-65.09 242.024)" fill="#1ed760"/>
      <rect id="Rectangle_51" data-name="Rectangle 51" width="9.991" height="15.986" transform="translate(196.997 244.268)" fill="#1ed760"/>
      <rect id="Rectangle_52" data-name="Rectangle 52" width="9.991" height="15.986" transform="translate(196.997 270.245)" fill="#1ed760"/>
      <rect id="Rectangle_53" data-name="Rectangle 53" width="13.988" height="1.998" transform="translate(193.001 298.221)" fill="#1ed760"/>
      <rect id="Rectangle_54" data-name="Rectangle 54" width="13.988" height="1.998" transform="translate(193.001 415.033)" fill="#1ed760"/>
      <rect id="Rectangle_55" data-name="Rectangle 55" width="13.988" height="1.998" transform="translate(193.001 435.703)" fill="#1ed760"/>
      <path id="Path_46" data-name="Path 46" d="M238.426,121.914v4h4V133.9h-4v4h9.991V121.914Z" transform="translate(-41.429 189.619)" fill="#1ed760"/>
      <path id="Path_47" data-name="Path 47" d="M238.426,160.494v4h4v7.993h-4v4h9.991V160.494Z" transform="translate(-41.429 197.92)" fill="#1ed760"/>
      <path id="Path_48" data-name="Path 48" d="M238.426,239.2v4h4v7.993h-4v4h9.991V239.2Z" transform="translate(-41.429 214.856)" fill="#1ed760"/>
      <rect id="Rectangle_56" data-name="Rectangle 56" width="9.991" height="15.986" transform="translate(330.239 407.171)" fill="#1ed760"/>
      <rect id="Rectangle_57" data-name="Rectangle 57" width="9.991" height="15.986" transform="translate(330.239 431.55)" fill="#1ed760"/>
      <rect id="Rectangle_58" data-name="Rectangle 58" width="13.988" height="1.998" transform="translate(325.999 458.253)" fill="#1ed760"/>
      <rect id="Rectangle_59" data-name="Rectangle 59" width="13.988" height="1.998" transform="translate(325.999 573.517)" fill="#1ed760"/>
      <rect id="Rectangle_60" data-name="Rectangle 60" width="13.988" height="1.998" transform="translate(325.999 595.499)" fill="#1ed760"/>
      <path id="Path_49" data-name="Path 49" d="M326.389,256.173v4h4v7.993h-4v4h9.991V256.173Z" transform="translate(3.849 218.508)" fill="#1ed760"/>
      <path id="Path_50" data-name="Path 50" d="M326.389,294.753v4h4v7.992h-4v4h9.991V294.753Z" transform="translate(3.849 226.81)" fill="#1ed760"/>
      <path id="Path_51" data-name="Path 51" d="M326.389,373.457v4h4v7.993h-4v4h9.991V373.457Z" transform="translate(3.849 242.024)" fill="#1ed760"/>
      <rect id="Rectangle_61" data-name="Rectangle 61" width="9.991" height="15.986" transform="translate(364.998 244.268)" fill="#1ed760"/>
      <rect id="Rectangle_62" data-name="Rectangle 62" width="9.991" height="15.986" transform="translate(401.931 240.272)" fill="#1ed760"/>
      <rect id="Rectangle_63" data-name="Rectangle 63" width="9.991" height="15.986" transform="translate(421.483 240.272)" fill="#1ed760"/>
      <rect id="Rectangle_64" data-name="Rectangle 64" width="9.991" height="15.986" transform="translate(421.483 288.23)" fill="#1ed760"/>
      <rect id="Rectangle_65" data-name="Rectangle 65" width="9.991" height="15.986" transform="translate(443.208 264.25)" fill="#1ed760"/>
      <rect id="Rectangle_66" data-name="Rectangle 66" width="9.991" height="15.986" transform="translate(443.208 290.228)" fill="#1ed760"/>
      <rect id="Rectangle_67" data-name="Rectangle 67" width="9.991" height="15.986" transform="translate(421.483 334.035)" fill="#1ed760"/>
      <rect id="Rectangle_68" data-name="Rectangle 68" width="9.991" height="15.986" transform="translate(443.208 358.414)" fill="#1ed760"/>
      <rect id="Rectangle_69" data-name="Rectangle 69" width="9.991" height="15.986" transform="translate(421.483 450.302)" fill="#1ed760"/>
      <rect id="Rectangle_70" data-name="Rectangle 70" width="9.991" height="15.986" transform="translate(401.931 358.414)" fill="#1ed760"/>
      <rect id="Rectangle_71" data-name="Rectangle 71" width="9.991" height="15.986" transform="translate(364.998 270.245)" fill="#1ed760"/>
      <rect id="Rectangle_72" data-name="Rectangle 72" width="9.991" height="15.986" transform="translate(364.998 502.81)" fill="#1ed760"/>
      <rect id="Rectangle_73" data-name="Rectangle 73" width="9.991" height="15.986" transform="translate(364.998 551.567)" fill="#1ed760"/>
      <rect id="Rectangle_74" data-name="Rectangle 74" width="9.991" height="15.986" transform="translate(364.998 571.519)" fill="#1ed760"/>
      <rect id="Rectangle_75" data-name="Rectangle 75" width="13.988" height="1.998" transform="translate(360.775 298.221)" fill="#1ed760"/>
      <rect id="Rectangle_76" data-name="Rectangle 76" width="13.988" height="1.998" transform="translate(419.457 322.199)" fill="#1ed760"/>
      <rect id="Rectangle_77" data-name="Rectangle 77" width="13.988" height="1.998" transform="translate(360.775 415.033)" fill="#1ed760"/>
      <rect id="Rectangle_78" data-name="Rectangle 78" width="13.988" height="1.998" transform="translate(360.775 435.703)" fill="#1ed760"/>
      <rect id="Rectangle_79" data-name="Rectangle 79" width="13.988" height="1.998" transform="translate(419.457 555.969)" fill="#1ed760"/>
      <rect id="Rectangle_80" data-name="Rectangle 80" width="13.988" height="1.998" transform="translate(402.07 597.497)" fill="#1ed760"/>
      <path id="Path_52" data-name="Path 52" d="M351.08,121.914v4h4V133.9h-4v4h9.991V121.914Z" transform="translate(13.918 189.619)" fill="#1ed760"/>
      <path id="Path_53" data-name="Path 53" d="M377.315,100.309v4h4V112.3h-4v4h9.991V100.309Z" transform="translate(24.616 187.921)" fill="#1ed760"/>
      <path id="Path_54" data-name="Path 54" d="M406.636,120.37v4h4v7.993h-4v4h9.991V120.37Z" transform="translate(36.572 189.286)" fill="#1ed760"/>
      <path id="Path_55" data-name="Path 55" d="M406.636,180.556v4h4v7.993h-4v4h9.991V180.556Z" transform="translate(36.572 202.237)" fill="#1ed760"/>
      <path id="Path_56" data-name="Path 56" d="M406.636,200.617v4h4v7.993h-4v4h9.991V200.617Z" transform="translate(36.572 206.554)" fill="#1ed760"/>
      <path id="Path_57" data-name="Path 57" d="M406.636,138.889v4h4v7.993h-4v4h9.991V138.889Z" transform="translate(36.572 193.271)" fill="#1ed760"/>
      <path id="Path_58" data-name="Path 58" d="M391.2,81.79v4h4v7.992h-4v4H401.2V81.79Z" transform="translate(30.279 182.46)" fill="#1ed760"/>
      <rect id="Rectangle_81" data-name="Rectangle 81" width="9.991" height="15.986" transform="translate(421.483 382.793)" fill="#1ed760"/>
      <rect id="Rectangle_82" data-name="Rectangle 82" width="9.991" height="15.986" transform="translate(421.483 427.8)" fill="#1ed760"/>
      <path id="Path_59" data-name="Path 59" d="M391.2,199.074v4h4v7.993h-4v4H401.2V199.074Z" transform="translate(30.279 206.222)" fill="#1ed760"/>
      <path id="Path_60" data-name="Path 60" d="M377.315,120.37v4h4v7.993h-4v4h9.991V120.37Z" transform="translate(24.616 189.286)" fill="#1ed760"/>
      <path id="Path_61" data-name="Path 61" d="M377.315,140.432v4h4v7.992h-4v4h9.991V140.432Z" transform="translate(24.616 193.603)" fill="#1ed760"/>
      <rect id="Rectangle_83" data-name="Rectangle 83" width="9.991" height="15.986" transform="translate(401.931 407.171)" fill="#1ed760"/>
      <path id="Path_62" data-name="Path 62" d="M377.315,180.556v4h4v7.993h-4v4h9.991V180.556Z" transform="translate(24.616 202.237)" fill="#1ed760"/>
      <rect id="Rectangle_84" data-name="Rectangle 84" width="9.991" height="15.986" transform="translate(401.931 455.929)" fill="#1ed760"/>
      <path id="Path_63" data-name="Path 63" d="M377.315,220.679v4h4v7.993h-4v4h9.991V220.679Z" transform="translate(24.616 210.871)" fill="#1ed760"/>
      <rect id="Rectangle_85" data-name="Rectangle 85" width="9.991" height="15.986" transform="translate(401.931 504.685)" fill="#1ed760"/>
      <rect id="Rectangle_86" data-name="Rectangle 86" width="9.991" height="15.986" transform="translate(421.483 500.935)" fill="#1ed760"/>
      <path id="Path_64" data-name="Path 64" d="M377.315,260.8v4h4v7.993h-4v4h9.991V260.8Z" transform="translate(24.616 219.504)" fill="#1ed760"/>
      <path id="Path_65" data-name="Path 65" d="M406.636,260.8v4h4v7.993h-4v4h9.991V260.8Z" transform="translate(36.572 219.504)" fill="#1ed760"/>
      <rect id="Rectangle_87" data-name="Rectangle 87" width="9.991" height="15.986" transform="translate(554.005 264.25)" fill="#1ed760"/>
      <rect id="Rectangle_88" data-name="Rectangle 88" width="9.991" height="15.986" transform="translate(554.005 290.228)" fill="#1ed760"/>
      <rect id="Rectangle_89" data-name="Rectangle 89" width="9.991" height="15.986" transform="translate(554.005 358.414)" fill="#1ed760"/>
      <path id="Path_66" data-name="Path 66" d="M485.34,120.37v4h4v7.993h-4v4h9.991V120.37Z" transform="translate(68.665 189.286)" fill="#1ed760"/>
      <path id="Path_67" data-name="Path 67" d="M485.34,180.556v4h4v7.993h-4v4h9.991V180.556Z" transform="translate(68.665 202.237)" fill="#1ed760"/>
      <path id="Path_68" data-name="Path 68" d="M485.34,200.617v4h4v7.993h-4v4h9.991V200.617Z" transform="translate(68.665 206.554)" fill="#1ed760"/>
      <path id="Path_69" data-name="Path 69" d="M485.34,138.889v4h4v7.993h-4v4h9.991V138.889Z" transform="translate(68.665 193.271)" fill="#1ed760"/>
      <path id="Path_70" data-name="Path 70" d="M485.34,260.8v4h4v7.993h-4v4h9.991V260.8Z" transform="translate(68.665 219.504)" fill="#1ed760"/>
      <rect id="Rectangle_90" data-name="Rectangle 90" width="9.991" height="15.986" transform="translate(401.931 553.443)" fill="#1ed760"/>
      <rect id="Rectangle_91" data-name="Rectangle 91" width="9.991" height="15.986" transform="translate(421.483 525.314)" fill="#1ed760"/>
      <rect id="Rectangle_92" data-name="Rectangle 92" width="9.991" height="15.986" transform="translate(401.931 615.481)" fill="#1ed760"/>
      <rect id="Rectangle_93" data-name="Rectangle 93" width="9.991" height="15.986" transform="translate(421.483 572.196)" fill="#1ed760"/>
      <path id="Path_71" data-name="Path 71" d="M377.315,300.926v4h4v7.993h-4v4h9.991V300.926Z" transform="translate(24.616 228.138)" fill="#1ed760"/>
      <path id="Path_72" data-name="Path 72" d="M377.315,395.062v4h4v7.993h-4v4h9.991V395.062Z" transform="translate(24.616 248.394)" fill="#1ed760"/>
      <rect id="Rectangle_94" data-name="Rectangle 94" width="9.991" height="15.986" transform="translate(521.417 240.272)" fill="#1ed760"/>
      <rect id="Rectangle_95" data-name="Rectangle 95" width="9.991" height="15.986" transform="translate(521.417 358.414)" fill="#1ed760"/>
      <rect id="Rectangle_96" data-name="Rectangle 96" width="13.988" height="1.998" transform="translate(521.61 597.497)" fill="#1ed760"/>
      <path id="Path_73" data-name="Path 73" d="M462.191,100.309v4h4V112.3h-4v4h9.991V100.309Z" transform="translate(59.226 187.921)" fill="#1ed760"/>
      <path id="Path_74" data-name="Path 74" d="M462.191,120.37v4h4v7.993h-4v4h9.991V120.37Z" transform="translate(59.226 189.286)" fill="#1ed760"/>
      <path id="Path_75" data-name="Path 75" d="M462.191,140.432v4h4v7.992h-4v4h9.991V140.432Z" transform="translate(59.226 193.603)" fill="#1ed760"/>
      <rect id="Rectangle_97" data-name="Rectangle 97" width="9.991" height="15.986" transform="translate(521.417 407.171)" fill="#1ed760"/>
      <path id="Path_76" data-name="Path 76" d="M462.191,180.556v4h4v7.993h-4v4h9.991V180.556Z" transform="translate(59.226 202.237)" fill="#1ed760"/>
      <rect id="Rectangle_98" data-name="Rectangle 98" width="9.991" height="15.986" transform="translate(521.417 455.929)" fill="#1ed760"/>
      <path id="Path_77" data-name="Path 77" d="M462.191,220.679v4h4v7.993h-4v4h9.991V220.679Z" transform="translate(59.226 210.871)" fill="#1ed760"/>
      <rect id="Rectangle_99" data-name="Rectangle 99" width="9.991" height="15.986" transform="translate(521.417 504.685)" fill="#1ed760"/>
      <path id="Path_78" data-name="Path 78" d="M462.191,260.8v4h4v7.993h-4v4h9.991V260.8Z" transform="translate(59.226 219.504)" fill="#1ed760"/>
      <rect id="Rectangle_100" data-name="Rectangle 100" width="9.991" height="15.986" transform="translate(521.417 553.443)" fill="#1ed760"/>
      <rect id="Rectangle_101" data-name="Rectangle 101" width="9.991" height="15.986" transform="translate(521.417 615.481)" fill="#1ed760"/>
      <path id="Path_79" data-name="Path 79" d="M462.191,300.926v4h4v7.993h-4v4h9.991V300.926Z" transform="translate(59.226 228.138)" fill="#1ed760"/>
      <path id="Path_80" data-name="Path 80" d="M462.191,395.062v4h4v7.993h-4v4h9.991V395.062Z" transform="translate(59.226 248.394)" fill="#1ed760"/>
      <rect id="Rectangle_102" data-name="Rectangle 102" width="9.991" height="15.986" transform="translate(573.556 240.272)" fill="#1ed760"/>
      <rect id="Rectangle_103" data-name="Rectangle 103" width="9.991" height="15.986" transform="translate(573.556 358.414)" fill="#1ed760"/>
      <rect id="Rectangle_104" data-name="Rectangle 104" width="13.988" height="1.998" transform="translate(573.773 597.497)" fill="#1ed760"/>
      <path id="Path_81" data-name="Path 81" d="M499.228,100.309v4h4V112.3h-4v4h9.991V100.309Z" transform="translate(74.328 187.921)" fill="#1ed760"/>
      <path id="Path_82" data-name="Path 82" d="M499.228,120.37v4h4v7.993h-4v4h9.991V120.37Z" transform="translate(74.328 189.286)" fill="#1ed760"/>
      <path id="Path_83" data-name="Path 83" d="M499.228,140.432v4h4v7.992h-4v4h9.991V140.432Z" transform="translate(74.328 193.603)" fill="#1ed760"/>
      <rect id="Rectangle_105" data-name="Rectangle 105" width="9.991" height="15.986" transform="translate(573.556 407.171)" fill="#1ed760"/>
      <path id="Path_84" data-name="Path 84" d="M499.228,180.556v4h4v7.993h-4v4h9.991V180.556Z" transform="translate(74.328 202.237)" fill="#1ed760"/>
      <rect id="Rectangle_106" data-name="Rectangle 106" width="9.991" height="15.986" transform="translate(573.556 455.929)" fill="#1ed760"/>
      <path id="Path_85" data-name="Path 85" d="M499.228,220.679v4h4v7.993h-4v4h9.991V220.679Z" transform="translate(74.328 210.871)" fill="#1ed760"/>
      <rect id="Rectangle_107" data-name="Rectangle 107" width="9.991" height="15.986" transform="translate(573.556 504.685)" fill="#1ed760"/>
      <path id="Path_86" data-name="Path 86" d="M499.228,260.8v4h4v7.993h-4v4h9.991V260.8Z" transform="translate(74.328 219.504)" fill="#1ed760"/>
      <rect id="Rectangle_108" data-name="Rectangle 108" width="9.991" height="15.986" transform="translate(573.556 553.443)" fill="#1ed760"/>
      <rect id="Rectangle_109" data-name="Rectangle 109" width="9.991" height="15.986" transform="translate(573.556 615.481)" fill="#1ed760"/>
      <path id="Path_87" data-name="Path 87" d="M499.228,300.926v4h4v7.993h-4v4h9.991V300.926Z" transform="translate(74.328 228.138)" fill="#1ed760"/>
      <path id="Path_88" data-name="Path 88" d="M499.228,395.062v4h4v7.993h-4v4h9.991V395.062Z" transform="translate(74.328 248.394)" fill="#1ed760"/>
      <path id="Path_89" data-name="Path 89" d="M391.2,373.457v4h4v7.993h-4v4H401.2V373.457Z" transform="translate(30.279 242.024)" fill="#1ed760"/>
      <path id="Path_90" data-name="Path 90" d="M391.2,393.519v4h4v7.993h-4v4H401.2V393.519Z" transform="translate(30.279 247.939)" fill="#1ed760"/>
      <path id="Path_91" data-name="Path 91" d="M351.08,160.494v4h4v7.993h-4v4h9.991V160.494Z" transform="translate(13.918 197.92)" fill="#1ed760"/>
      <path id="Path_92" data-name="Path 92" d="M351.08,239.2v4h4v7.993h-4v4h9.991V239.2Z" transform="translate(13.918 214.856)" fill="#1ed760"/>
      <path id="Path_93" data-name="Path 93" d="M351.08,259.259v4h4v7.993h-4v4h9.991V259.259Z" transform="translate(13.918 219.172)" fill="#1ed760"/>
      <path id="Path_94" data-name="Path 94" d="M351.08,299.383v4h4v7.993h-4v4h9.991V299.383Z" transform="translate(13.918 227.806)" fill="#1ed760"/>
      <path id="Path_95" data-name="Path 95" d="M351.08,356.481v4h4v7.993h-4v4h9.991V356.481Z" transform="translate(13.918 237.018)" fill="#1ed760"/>
      <path id="Path_96" data-name="Path 96" d="M351.08,373.457v4h4v7.993h-4v4h9.991V373.457Z" transform="translate(13.918 242.024)" fill="#1ed760"/>
      <rect id="Rectangle_110" data-name="Rectangle 110" width="9.991" height="15.986" transform="translate(477.967 244.268)" fill="#1ed760"/>
      <rect id="Rectangle_111" data-name="Rectangle 111" width="9.991" height="15.986" transform="translate(477.967 270.245)" fill="#1ed760"/>
      <rect id="Rectangle_112" data-name="Rectangle 112" width="13.988" height="1.998" transform="translate(473.795 298.221)" fill="#1ed760"/>
      <rect id="Rectangle_113" data-name="Rectangle 113" width="13.988" height="1.998" transform="translate(473.795 415.033)" fill="#1ed760"/>
      <rect id="Rectangle_114" data-name="Rectangle 114" width="13.988" height="1.998" transform="translate(473.795 435.703)" fill="#1ed760"/>
      <path id="Path_97" data-name="Path 97" d="M431.327,121.914v4h4V133.9h-4v4h9.991V121.914Z" transform="translate(46.64 189.619)" fill="#1ed760"/>
      <path id="Path_98" data-name="Path 98" d="M431.327,160.494v4h4v7.993h-4v4h9.991V160.494Z" transform="translate(46.64 197.92)" fill="#1ed760"/>
      <path id="Path_99" data-name="Path 99" d="M431.327,239.2v4h4v7.993h-4v4h9.991V239.2Z" transform="translate(46.64 214.856)" fill="#1ed760"/>
      <rect id="Rectangle_115" data-name="Rectangle 115" width="9.991" height="15.986" transform="translate(601.799 407.171)" fill="#1ed760"/>
      <rect id="Rectangle_116" data-name="Rectangle 116" width="9.991" height="15.986" transform="translate(601.799 431.55)" fill="#1ed760"/>
      <rect id="Rectangle_117" data-name="Rectangle 117" width="13.988" height="1.998" transform="translate(597.682 458.253)" fill="#1ed760"/>
      <rect id="Rectangle_118" data-name="Rectangle 118" width="13.988" height="1.998" transform="translate(597.682 573.517)" fill="#1ed760"/>
      <rect id="Rectangle_119" data-name="Rectangle 119" width="13.988" height="1.998" transform="translate(597.682 595.499)" fill="#1ed760"/>
      <path id="Path_100" data-name="Path 100" d="M519.29,256.173v4h4v7.993h-4v4h9.991V256.173Z" transform="translate(82.509 218.508)" fill="#1ed760"/>
      <path id="Path_101" data-name="Path 101" d="M519.29,294.753v4h4v7.992h-4v4h9.991V294.753Z" transform="translate(82.509 226.81)" fill="#1ed760"/>
      <path id="Path_102" data-name="Path 102" d="M519.29,373.457v4h4v7.993h-4v4h9.991V373.457Z" transform="translate(82.509 242.024)" fill="#1ed760"/>
      <rect id="Rectangle_120" data-name="Rectangle 120" width="9.991" height="15.986" transform="translate(636.56 244.268)" fill="#1ed760"/>
      <rect id="Rectangle_121" data-name="Rectangle 121" width="9.991" height="15.986" transform="translate(673.491 240.272)" fill="#1ed760"/>
      <rect id="Rectangle_122" data-name="Rectangle 122" width="9.991" height="15.986" transform="translate(693.043 240.272)" fill="#1ed760"/>
      <rect id="Rectangle_123" data-name="Rectangle 123" width="9.991" height="15.986" transform="translate(693.043 288.23)" fill="#1ed760"/>
      <rect id="Rectangle_124" data-name="Rectangle 124" width="9.991" height="15.986" transform="translate(714.768 264.25)" fill="#1ed760"/>
      <rect id="Rectangle_125" data-name="Rectangle 125" width="9.991" height="15.986" transform="translate(714.768 290.228)" fill="#1ed760"/>
      <rect id="Rectangle_126" data-name="Rectangle 126" width="9.991" height="15.986" transform="translate(693.043 334.035)" fill="#1ed760"/>
      <rect id="Rectangle_127" data-name="Rectangle 127" width="9.991" height="15.986" transform="translate(714.768 358.414)" fill="#1ed760"/>
      <rect id="Rectangle_128" data-name="Rectangle 128" width="9.991" height="15.986" transform="translate(693.043 450.302)" fill="#1ed760"/>
      <rect id="Rectangle_129" data-name="Rectangle 129" width="9.991" height="15.986" transform="translate(673.491 358.414)" fill="#1ed760"/>
      <rect id="Rectangle_130" data-name="Rectangle 130" width="9.991" height="15.986" transform="translate(636.56 270.245)" fill="#1ed760"/>
      <rect id="Rectangle_131" data-name="Rectangle 131" width="9.991" height="15.986" transform="translate(636.56 502.81)" fill="#1ed760"/>
      <rect id="Rectangle_132" data-name="Rectangle 132" width="9.991" height="15.986" transform="translate(636.56 551.567)" fill="#1ed760"/>
      <rect id="Rectangle_133" data-name="Rectangle 133" width="9.991" height="15.986" transform="translate(636.56 571.519)" fill="#1ed760"/>
      <rect id="Rectangle_134" data-name="Rectangle 134" width="13.988" height="1.998" transform="translate(632.456 298.221)" fill="#1ed760"/>
      <rect id="Rectangle_135" data-name="Rectangle 135" width="13.988" height="1.998" transform="translate(691.14 322.199)" fill="#1ed760"/>
      <rect id="Rectangle_136" data-name="Rectangle 136" width="13.988" height="1.998" transform="translate(632.456 415.033)" fill="#1ed760"/>
      <rect id="Rectangle_137" data-name="Rectangle 137" width="13.988" height="1.998" transform="translate(632.456 435.703)" fill="#1ed760"/>
      <rect id="Rectangle_138" data-name="Rectangle 138" width="13.988" height="1.998" transform="translate(691.14 555.969)" fill="#1ed760"/>
      <rect id="Rectangle_139" data-name="Rectangle 139" width="13.988" height="1.998" transform="translate(673.752 597.497)" fill="#1ed760"/>
      <path id="Path_103" data-name="Path 103" d="M543.981,121.914v4h4V133.9h-4v4h9.992V121.914Z" transform="translate(92.577 189.619)" fill="#1ed760"/>
      <path id="Path_104" data-name="Path 104" d="M570.216,100.309v4h4V112.3h-4v4h9.991V100.309Z" transform="translate(103.275 187.921)" fill="#1ed760"/>
      <path id="Path_105" data-name="Path 105" d="M599.537,120.37v4h4v7.993h-4v4h9.991V120.37Z" transform="translate(115.231 189.286)" fill="#1ed760"/>
      <path id="Path_106" data-name="Path 106" d="M599.537,180.556v4h4v7.993h-4v4h9.991V180.556Z" transform="translate(115.231 202.237)" fill="#1ed760"/>
      <path id="Path_107" data-name="Path 107" d="M599.537,200.617v4h4v7.993h-4v4h9.991V200.617Z" transform="translate(115.231 206.554)" fill="#1ed760"/>
      <path id="Path_108" data-name="Path 108" d="M599.537,138.889v4h4v7.993h-4v4h9.991V138.889Z" transform="translate(115.231 193.271)" fill="#1ed760"/>
      <path id="Path_109" data-name="Path 109" d="M584.105,81.79v4h4v7.992h-4v4H594.1V81.79Z" transform="translate(108.938 182.46)" fill="#1ed760"/>
      <rect id="Rectangle_140" data-name="Rectangle 140" width="9.991" height="15.986" transform="translate(693.043 382.793)" fill="#1ed760"/>
      <rect id="Rectangle_141" data-name="Rectangle 141" width="9.991" height="15.986" transform="translate(693.043 427.8)" fill="#1ed760"/>
      <path id="Path_110" data-name="Path 110" d="M584.105,199.074v4h4v7.993h-4v4H594.1V199.074Z" transform="translate(108.938 206.222)" fill="#1ed760"/>
      <path id="Path_111" data-name="Path 111" d="M570.216,120.37v4h4v7.993h-4v4h9.991V120.37Z" transform="translate(103.275 189.286)" fill="#1ed760"/>
      <path id="Path_112" data-name="Path 112" d="M570.216,140.432v4h4v7.992h-4v4h9.991V140.432Z" transform="translate(103.275 193.603)" fill="#1ed760"/>
      <rect id="Rectangle_142" data-name="Rectangle 142" width="9.991" height="15.986" transform="translate(673.491 407.171)" fill="#1ed760"/>
      <path id="Path_113" data-name="Path 113" d="M570.216,180.556v4h4v7.993h-4v4h9.991V180.556Z" transform="translate(103.275 202.237)" fill="#1ed760"/>
      <rect id="Rectangle_143" data-name="Rectangle 143" width="9.991" height="15.986" transform="translate(673.491 455.929)" fill="#1ed760"/>
      <path id="Path_114" data-name="Path 114" d="M570.216,220.679v4h4v7.993h-4v4h9.991V220.679Z" transform="translate(103.275 210.871)" fill="#1ed760"/>
      <rect id="Rectangle_144" data-name="Rectangle 144" width="9.991" height="15.986" transform="translate(673.491 504.685)" fill="#1ed760"/>
      <rect id="Rectangle_145" data-name="Rectangle 145" width="9.991" height="15.986" transform="translate(693.043 500.935)" fill="#1ed760"/>
      <path id="Path_115" data-name="Path 115" d="M570.216,260.8v4h4v7.993h-4v4h9.991V260.8Z" transform="translate(103.275 219.504)" fill="#1ed760"/>
      <path id="Path_116" data-name="Path 116" d="M599.537,260.8v4h4v7.993h-4v4h9.991V260.8Z" transform="translate(115.231 219.504)" fill="#1ed760"/>
      <rect id="Rectangle_146" data-name="Rectangle 146" width="9.991" height="15.986" transform="translate(829.399 264.25)" fill="#1ed760"/>
      <rect id="Rectangle_147" data-name="Rectangle 147" width="9.991" height="15.986" transform="translate(829.399 290.228)" fill="#1ed760"/>
      <rect id="Rectangle_148" data-name="Rectangle 148" width="9.991" height="15.986" transform="translate(829.399 358.414)" fill="#1ed760"/>
      <path id="Path_117" data-name="Path 117" d="M678.241,120.37v4h4v7.993h-4v4h9.991V120.37Z" transform="translate(151.158 189.286)" fill="#1ed760"/>
      <path id="Path_118" data-name="Path 118" d="M678.241,180.556v4h4v7.993h-4v4h9.991V180.556Z" transform="translate(151.158 202.237)" fill="#1ed760"/>
      <path id="Path_119" data-name="Path 119" d="M678.241,200.617v4h4v7.993h-4v4h9.991V200.617Z" transform="translate(151.158 206.554)" fill="#1ed760"/>
      <path id="Path_120" data-name="Path 120" d="M678.241,138.889v4h4v7.993h-4v4h9.991V138.889Z" transform="translate(151.158 193.271)" fill="#1ed760"/>
      <path id="Path_121" data-name="Path 121" d="M678.241,260.8v4h4v7.993h-4v4h9.991V260.8Z" transform="translate(151.158 219.504)" fill="#1ed760"/>
      <rect id="Rectangle_149" data-name="Rectangle 149" width="9.991" height="15.986" transform="translate(673.491 553.443)" fill="#1ed760"/>
      <rect id="Rectangle_150" data-name="Rectangle 150" width="9.991" height="15.986" transform="translate(693.043 525.314)" fill="#1ed760"/>
      <rect id="Rectangle_151" data-name="Rectangle 151" width="9.991" height="15.986" transform="translate(673.491 615.481)" fill="#1ed760"/>
      <rect id="Rectangle_152" data-name="Rectangle 152" width="9.991" height="15.986" transform="translate(693.043 572.196)" fill="#1ed760"/>
      <path id="Path_122" data-name="Path 122" d="M570.216,300.926v4h4v7.993h-4v4h9.991V300.926Z" transform="translate(103.275 228.138)" fill="#1ed760"/>
      <path id="Path_123" data-name="Path 123" d="M570.216,395.062v4h4v7.993h-4v4h9.991V395.062Z" transform="translate(103.275 248.394)" fill="#1ed760"/>
      <rect id="Rectangle_153" data-name="Rectangle 153" width="9.991" height="15.986" transform="translate(799.426 240.272)" fill="#1ed760"/>
      <rect id="Rectangle_154" data-name="Rectangle 154" width="9.991" height="15.986" transform="translate(799.426 358.414)" fill="#1ed760"/>
      <rect id="Rectangle_155" data-name="Rectangle 155" width="13.988" height="1.998" transform="translate(799.426 597.497)" fill="#1ed760"/>
      <path id="Path_124" data-name="Path 124" d="M655.093,100.309v4h4V112.3h-4v4h9.991V100.309Z" transform="translate(144.333 187.921)" fill="#1ed760"/>
      <path id="Path_125" data-name="Path 125" d="M655.093,120.37v4h4v7.993h-4v4h9.991V120.37Z" transform="translate(144.333 189.286)" fill="#1ed760"/>
      <path id="Path_126" data-name="Path 126" d="M655.093,140.432v4h4v7.992h-4v4h9.991V140.432Z" transform="translate(144.333 193.603)" fill="#1ed760"/>
      <rect id="Rectangle_156" data-name="Rectangle 156" width="9.991" height="15.986" transform="translate(799.426 407.171)" fill="#1ed760"/>
      <path id="Path_127" data-name="Path 127" d="M655.093,180.556v4h4v7.993h-4v4h9.991V180.556Z" transform="translate(144.333 202.237)" fill="#1ed760"/>
      <rect id="Rectangle_157" data-name="Rectangle 157" width="9.991" height="15.986" transform="translate(799.426 455.929)" fill="#1ed760"/>
      <path id="Path_128" data-name="Path 128" d="M655.093,220.679v4h4v7.993h-4v4h9.991V220.679Z" transform="translate(144.333 210.871)" fill="#1ed760"/>
      <rect id="Rectangle_158" data-name="Rectangle 158" width="9.991" height="15.986" transform="translate(799.426 504.685)" fill="#1ed760"/>
      <path id="Path_129" data-name="Path 129" d="M655.093,260.8v4h4v7.993h-4v4h9.991V260.8Z" transform="translate(144.333 219.504)" fill="#1ed760"/>
      <rect id="Rectangle_159" data-name="Rectangle 159" width="9.991" height="15.986" transform="translate(799.426 553.443)" fill="#1ed760"/>
      <rect id="Rectangle_160" data-name="Rectangle 160" width="9.991" height="15.986" transform="translate(799.426 615.481)" fill="#1ed760"/>
      <path id="Path_130" data-name="Path 130" d="M655.093,300.926v4h4v7.993h-4v4h9.991V300.926Z" transform="translate(144.333 228.138)" fill="#1ed760"/>
      <path id="Path_131" data-name="Path 131" d="M655.093,395.062v4h4v7.993h-4v4h9.991V395.062Z" transform="translate(144.333 248.394)" fill="#1ed760"/>
      <rect id="Rectangle_161" data-name="Rectangle 161" width="9.991" height="15.986" transform="translate(847.383 240.272)" fill="#1ed760"/>
      <rect id="Rectangle_162" data-name="Rectangle 162" width="9.991" height="15.986" transform="translate(847.383 358.414)" fill="#1ed760"/>
      <rect id="Rectangle_163" data-name="Rectangle 163" width="13.988" height="1.998" transform="translate(847.383 597.497)" fill="#1ed760"/>
      <path id="Path_132" data-name="Path 132" d="M692.13,100.309v4h4V112.3h-4v4h9.991V100.309Z" transform="translate(155.253 187.921)" fill="#1ed760"/>
      <path id="Path_133" data-name="Path 133" d="M692.13,120.37v4h4v7.993h-4v4h9.991V120.37Z" transform="translate(155.253 189.286)" fill="#1ed760"/>
      <path id="Path_134" data-name="Path 134" d="M692.13,140.432v4h4v7.992h-4v4h9.991V140.432Z" transform="translate(155.253 193.603)" fill="#1ed760"/>
      <rect id="Rectangle_164" data-name="Rectangle 164" width="9.991" height="15.986" transform="translate(847.383 407.171)" fill="#1ed760"/>
      <path id="Path_135" data-name="Path 135" d="M692.13,180.556v4h4v7.993h-4v4h9.991V180.556Z" transform="translate(155.253 202.237)" fill="#1ed760"/>
      <rect id="Rectangle_165" data-name="Rectangle 165" width="9.991" height="15.986" transform="translate(847.383 455.929)" fill="#1ed760"/>
      <path id="Path_136" data-name="Path 136" d="M692.13,220.679v4h4v7.993h-4v4h9.991V220.679Z" transform="translate(155.253 210.871)" fill="#1ed760"/>
      <rect id="Rectangle_166" data-name="Rectangle 166" width="9.991" height="15.986" transform="translate(847.383 504.685)" fill="#1ed760"/>
      <path id="Path_137" data-name="Path 137" d="M692.13,260.8v4h4v7.993h-4v4h9.991V260.8Z" transform="translate(155.253 219.504)" fill="#1ed760"/>
      <rect id="Rectangle_167" data-name="Rectangle 167" width="9.991" height="15.986" transform="translate(847.383 553.443)" fill="#1ed760"/>
      <rect id="Rectangle_168" data-name="Rectangle 168" width="9.991" height="15.986" transform="translate(847.383 615.481)" fill="#1ed760"/>
      <path id="Path_138" data-name="Path 138" d="M692.13,300.926v4h4v7.993h-4v4h9.991V300.926Z" transform="translate(155.253 228.138)" fill="#1ed760"/>
      <path id="Path_139" data-name="Path 139" d="M692.13,395.062v4h4v7.993h-4v4h9.991V395.062Z" transform="translate(155.253 248.394)" fill="#1ed760"/>
      <path id="Path_140" data-name="Path 140" d="M584.105,373.457v4h4v7.993h-4v4H594.1V373.457Z" transform="translate(108.938 242.024)" fill="#1ed760"/>
      <path id="Path_141" data-name="Path 141" d="M584.105,393.519v4h4v7.993h-4v4H594.1V393.519Z" transform="translate(108.938 247.939)" fill="#1ed760"/>
      <path id="Path_142" data-name="Path 142" d="M543.981,160.494v4h4v7.993h-4v4h9.992V160.494Z" transform="translate(92.577 197.92)" fill="#1ed760"/>
      <path id="Path_143" data-name="Path 143" d="M543.981,239.2v4h4v7.993h-4v4h9.992V239.2Z" transform="translate(92.577 214.856)" fill="#1ed760"/>
      <path id="Path_144" data-name="Path 144" d="M543.981,259.259v4h4v7.993h-4v4h9.992V259.259Z" transform="translate(92.577 219.172)" fill="#1ed760"/>
      <path id="Path_145" data-name="Path 145" d="M543.981,299.383v4h4v7.993h-4v4h9.992V299.383Z" transform="translate(92.577 227.806)" fill="#1ed760"/>
      <path id="Path_146" data-name="Path 146" d="M543.981,356.481v4h4v7.993h-4v4h9.992V356.481Z" transform="translate(92.577 237.018)" fill="#1ed760"/>
      <path id="Path_147" data-name="Path 147" d="M543.981,373.457v4h4v7.993h-4v4h9.992V373.457Z" transform="translate(92.577 242.024)" fill="#1ed760"/>
      <rect id="Rectangle_169" data-name="Rectangle 169" width="9.991" height="15.986" transform="translate(759.46 244.268)" fill="#1ed760"/>
      <rect id="Rectangle_170" data-name="Rectangle 170" width="9.991" height="15.986" transform="translate(759.46 270.245)" fill="#1ed760"/>
      <rect id="Rectangle_171" data-name="Rectangle 171" width="13.988" height="1.998" transform="translate(755.464 298.221)" fill="#1ed760"/>
      <rect id="Rectangle_172" data-name="Rectangle 172" width="13.988" height="1.998" transform="translate(755.464 415.033)" fill="#1ed760"/>
      <rect id="Rectangle_173" data-name="Rectangle 173" width="13.988" height="1.998" transform="translate(755.464 435.703)" fill="#1ed760"/>
      <path id="Path_148" data-name="Path 148" d="M624.228,121.914v4h4V133.9h-4v4h9.991V121.914Z" transform="translate(135.232 189.619)" fill="#1ed760"/>
      <path id="Path_149" data-name="Path 149" d="M624.228,160.494v4h4v7.993h-4v4h9.991V160.494Z" transform="translate(135.232 197.92)" fill="#1ed760"/>
      <path id="Path_150" data-name="Path 150" d="M624.228,239.2v4h4v7.993h-4v4h9.991V239.2Z" transform="translate(135.232 214.856)" fill="#1ed760"/>
      <rect id="Rectangle_174" data-name="Rectangle 174" width="9.991" height="15.986" transform="translate(873.359 407.171)" fill="#1ed760"/>
      <rect id="Rectangle_175" data-name="Rectangle 175" width="9.991" height="15.986" transform="translate(873.359 431.55)" fill="#1ed760"/>
      <rect id="Rectangle_176" data-name="Rectangle 176" width="13.988" height="1.998" transform="translate(869.363 458.253)" fill="#1ed760"/>
      <rect id="Rectangle_177" data-name="Rectangle 177" width="13.988" height="1.998" transform="translate(869.363 573.517)" fill="#1ed760"/>
      <rect id="Rectangle_178" data-name="Rectangle 178" width="13.988" height="1.998" transform="translate(869.363 595.499)" fill="#1ed760"/>
      <path id="Path_151" data-name="Path 151" d="M712.191,256.173v4h4v7.993h-4v4h9.991V256.173Z" transform="translate(161.168 218.508)" fill="#1ed760"/>
      <path id="Path_152" data-name="Path 152" d="M712.191,294.753v4h4v7.992h-4v4h9.991V294.753Z" transform="translate(161.168 226.81)" fill="#1ed760"/>
      <path id="Path_153" data-name="Path 153" d="M712.191,373.457v4h4v7.993h-4v4h9.991V373.457Z" transform="translate(161.168 242.024)" fill="#1ed760"/>
    </g>
    <g id="Group_27" data-name="Group 27">
      <ellipse id="Ellipse_6" data-name="Ellipse 6" cx="397.129" cy="28.205" rx="397.129" ry="28.205" transform="translate(129.742 765.418)" fill="#1ed760"/>
      <path id="Path_235" data-name="Path 235" d="M905.292,733.184c-9.522,9.214-50.083,14.56-86.87,14.239-17.693-.154-44.477-9.878-48.512-10.841-23.529-5.613-42.81-3.864-67.851-13.476,7.33-17.537,5.391-33.044,8.5-36.244,9.517-9.8.488-35.926,6.468-51.086,6.72-17.036,26.9-23.228,13.318-34.693,40.026,8.257,84.042-4.987,108.226,6.53a54.73,54.73,0,0,0,31.818,4.432c5.059,5.533-5,47.827-2.647,52.854,3.872,8.271,3.787,18.771,8.757,27.9C884.3,707.138,894.311,719.691,905.292,733.184Z" transform="translate(-223.298 431.204) rotate(-21)" fill="#6c63ff"/>
      <path id="Path_238" data-name="Path 238" d="M537.591,466.249l20.308,3.385,10.154,29.333L538.72,517.019l-33.847-50.77h32.718Z" transform="translate(129.742 230.912)" fill="#a0616a"/>
      <path id="Path_296" data-name="Path 296" d="M47.385,0A47.385,47.385,0,0,1,94.77,47.385c0,26.17-13.567,38.8-39.737,38.8-6.412,0-15.2,1.6-21.758,0a52.771,52.771,0,0,1-8.345-2.791C10.336,77.163,0,64.219,0,47.385A47.385,47.385,0,0,1,47.385,0Z" transform="translate(677.487 647.52)" fill="#a0616a"/>
      <path id="Path_239" data-name="Path 239" d="M532.372,445.919S417.3,458.329,396.987,456.073s-29.333-4.513-29.333-4.513-13.539,18.051-6.769,25.949a48.822,48.822,0,0,0,13.539,11.282s12.41-3.385,21.436,0S496.27,506.842,512.064,493.3,532.372,445.919,532.372,445.919Z" transform="translate(-69.245 76.37)" fill="#2f2e41"/>
      <path id="Path_240" data-name="Path 240" d="M540.27,697.509S464.68,676.073,451.142,581.3v-9.026s-14.957,26.238-20.309,31.59c-6.205,6.205-28.205,62.052-27.077,67.693s0,7.9,0,7.9l-32.718-3.385V665.919s17.487-52.462,18.615-64.872,43.436-98.718,43.436-98.718,15.795-32.718,42.872,0,29.333,55.282,29.333,55.282L540.269,625.3Z" transform="translate(-69.245 76.37)" fill="#2f2e41"/>
      <path id="Path_241" data-name="Path 241" d="M371.038,448.175l-36.1-12.41s-33.846-24.821-25.949,0,44,78.975,54.154,73.334,22.366-19.643,19.644-21.668S362.013,470.739,371.038,448.175Z" transform="translate(-69.245 76.37)" fill="#fff"/>
      <path id="Path_242" data-name="Path 242" d="M375.4,659.259l-29.144,14.233s-35.244,5.422-15.589,15.589,73.876,21.011,76.587,11.522,1.635-25.236-1.216-24.818S383.535,678.236,375.4,659.259Z" transform="translate(-69.245 76.37)" fill="#fff"/>
      <path id="Path_243" data-name="Path 243" d="M525.6,623.048s-14.667,63.18,10.154,76.718,198.565,15.795,212.1-9.026,6.769-24.821,6.769-24.821l-36.1-40.615,29.333-2.256s0-9.026-10.154-10.154-41.744-12.41-68.821-4.513-42.872-15.795-42.872-15.795Z" transform="translate(-69.245 76.37)" fill="#fff"/>
      <path id="Path_244" data-name="Path 244" d="M307.437,271.069l-19.18,104.924,132-15.8,23.692-94.77Z" transform="translate(129.742 230.912)" fill="#3f3d56"/>
      <path id="Path_245" data-name="Path 245" d="M311.386,275.018l-15.795,93.641,120.154-14.1,23.128-85.18Z" transform="translate(129.742 230.912)" opacity="0.57"/>
      <path id="Path_246" data-name="Path 246" d="M292.77,377.121l-4.513-1.128L286,380.505l36.1,100.411,3.395-1.3,1.117-6.6Z" transform="translate(129.742 230.912)" fill="#b3b3b3"/>
      <path id="Path_247" data-name="Path 247" d="M288.257,374.864l36.1,104.924L460.873,459.48,420.258,360.2Z" transform="translate(129.742 230.912)" fill="#d0cde1"/>
      <path id="Path_248" data-name="Path 248" d="M306.309,371.48v5.641l100.41-11.282-1.128-5.641Z" transform="translate(129.742 230.912)" fill="#3f3d56"/>
      <path id="Path_249" data-name="Path 249" d="M308.565,382.762l15.795,44,102.667-12.41-18.051-41.744Z" transform="translate(129.742 230.912)" opacity="0.81"/>
      <path id="Path_250" data-name="Path 250" d="M636.167,599.355l-3.385-9.026s-25.949-45.128-39.487-36.1S621.5,607.252,621.5,607.252h13.539Z" transform="translate(-69.245 76.37)" fill="#a0616a"/>
      <path id="Path_251" data-name="Path 251" d="M550.424,606.124l-3.385-13.539s-9.026-41.744,6.769-39.487,20.308,41.744,20.308,41.744l-1.128,9.026Z" transform="translate(-69.245 76.37)" fill="#a0616a"/>
      <path id="Path_252" data-name="Path 252" d="M577.5,600.483s-29.333-4.513-30.462,2.256-6.769,108.308,21.436,111.693,168.1,18.051,153.436-16.923-37.231-30.462-37.231-30.462l-95.9,10.154Z" transform="translate(-69.245 76.37)" fill="#fff"/>
      <path id="Path_253" data-name="Path 253" d="M467.078,458.916l-29.9-20.872-19.744,15.231,24.821,27.077Z" transform="translate(129.742 230.912)" fill="#fff"/>
      <path id="Path_254" data-name="Path 254" d="M386.976,479.224l4.512,42.872,77.847-4.513-67.693-1.128Z" transform="translate(129.742 230.912)" opacity="0.2"/>
      <path id="Path_294" data-name="Path 294" d="M691.32,314.17a47.156,47.156,0,0,1-2.982,4.508,52.106,52.106,0,0,1-6.886,7.552,57.917,57.917,0,0,1-4.649,3.862,72.423,72.423,0,0,1-9.393,5.944c-9.515,5.083-19.817,8.27-30.064,11.415q-10.044,3.1-20.1,6.188c-7.008,5.614-30.484,24.036-34.429,21.738-4.649-2.714,20.827-21.818,20.827-21.818l1.172.942c-3.728-2.484-5.679-8.242-6.52-13.224-1.491-8.916-2.2-18.177-.2-26.993s6.994-17.187,14.612-21.307c3.375-1.838,7.469-3.087,9.908-5.916a7.443,7.443,0,0,0,.962-1.378,4.63,4.63,0,0,0,.38-.732,10.162,10.162,0,0,1,1.071-2.2c1.4-1.709,3.931-1.192,6.045-.919.23.029.447.057.678.072a10.05,10.05,0,0,0,1.138.057c7.55.172,14.869-4.279,22.514-4.279,8.377-.014,15.506,5.126,22.88,8.629,1.491.718,2.9,1.364,4.229,2.024,5.327,2.628,9.339,5.427,11.535,12.894C695.32,305.6,693.571,310.293,691.32,314.17Z" transform="translate(1299.414 228.618) rotate(114)" fill="#fff"/>
    </g>
  </g>
</svg>
